G04*
G04 #@! TF.GenerationSoftware,Altium Limited,Altium Designer,19.0.10 (269)*
G04*
G04 Layer_Color=8388736*
%FSTAX25Y25*%
%MOIN*%
G70*
G01*
G75*
G04:AMPARAMS|DCode=37|XSize=67.84mil|YSize=24.14mil|CornerRadius=4.97mil|HoleSize=0mil|Usage=FLASHONLY|Rotation=90.000|XOffset=0mil|YOffset=0mil|HoleType=Round|Shape=RoundedRectangle|*
%AMROUNDEDRECTD37*
21,1,0.06784,0.01421,0,0,90.0*
21,1,0.05791,0.02414,0,0,90.0*
1,1,0.00994,0.00710,0.02895*
1,1,0.00994,0.00710,-0.02895*
1,1,0.00994,-0.00710,-0.02895*
1,1,0.00994,-0.00710,0.02895*
%
%ADD37ROUNDEDRECTD37*%
%ADD38R,0.03162X0.04343*%
%ADD39R,0.02769X0.03162*%
%ADD40R,0.05131X0.09265*%
%ADD41R,0.05131X0.09265*%
%ADD42R,0.14580X0.09265*%
%ADD43R,0.06706X0.03162*%
%ADD44R,0.04343X0.03162*%
%ADD45R,0.07493X0.03950*%
%ADD46R,0.03162X0.02769*%
%ADD47R,0.04537X0.04340*%
%ADD48R,0.07887X0.04737*%
%ADD49R,0.04700X0.02000*%
%ADD50R,0.09068X0.08674*%
%ADD51R,0.08280X0.08280*%
%ADD52R,0.07800X0.01800*%
%ADD53C,0.07099*%
%ADD54R,0.07099X0.07099*%
%ADD55R,0.07099X0.07099*%
D37*
X0304984Y0165398D02*
D03*
X0307543D02*
D03*
X0310102D02*
D03*
X0312661D02*
D03*
X031522D02*
D03*
X0317779D02*
D03*
X0320339D02*
D03*
X0322898D02*
D03*
X0325457D02*
D03*
X0328016D02*
D03*
Y0142602D02*
D03*
X0325457D02*
D03*
X0322898D02*
D03*
X0320339D02*
D03*
X0317779D02*
D03*
X031522D02*
D03*
X0312661D02*
D03*
X0310102D02*
D03*
X0307543D02*
D03*
X0304984D02*
D03*
D38*
X02912Y01845D02*
D03*
X0298349Y0184501D02*
D03*
X02912Y01775D02*
D03*
X0298349Y01775D02*
D03*
X02595Y01455D02*
D03*
X0266649Y0145501D02*
D03*
X0258Y0185D02*
D03*
X0265149Y0185001D02*
D03*
D39*
X028065Y0184501D02*
D03*
X027585D02*
D03*
X028065Y0177694D02*
D03*
X027585D02*
D03*
X02601Y0154D02*
D03*
X02649D02*
D03*
D40*
X0293555Y0165205D02*
D03*
X0275445D02*
D03*
D41*
X02845D02*
D03*
D42*
X02845Y0140795D02*
D03*
D43*
X0307689Y0177693D02*
D03*
Y0185173D02*
D03*
X03195D02*
D03*
Y0181433D02*
D03*
Y0177693D02*
D03*
D44*
X03285Y01855D02*
D03*
X0328501Y0178351D02*
D03*
X03225Y0121D02*
D03*
X0322499Y0128149D02*
D03*
X0248Y0184501D02*
D03*
X0248001Y0177352D02*
D03*
D45*
X03395Y0158693D02*
D03*
Y0145307D02*
D03*
Y0170007D02*
D03*
Y0183393D02*
D03*
Y0134693D02*
D03*
Y0121307D02*
D03*
D46*
X03285Y0122303D02*
D03*
Y0127103D02*
D03*
D47*
X03407Y0111803D02*
D03*
X03333D02*
D03*
X03078Y01285D02*
D03*
X03152D02*
D03*
X03078Y0121D02*
D03*
X03152D02*
D03*
X03207Y0111803D02*
D03*
X03133D02*
D03*
X02973Y0111D02*
D03*
X03047D02*
D03*
X02803D02*
D03*
X02877D02*
D03*
X02657Y01765D02*
D03*
X02583D02*
D03*
X0266786Y0166D02*
D03*
X0259386D02*
D03*
D48*
X0297248Y0129661D02*
D03*
X02815D02*
D03*
Y0121D02*
D03*
X0297248D02*
D03*
D49*
X0247513Y0113984D02*
D03*
Y0116543D02*
D03*
Y0119102D02*
D03*
Y0121661D02*
D03*
Y0124221D02*
D03*
Y0126779D02*
D03*
Y0129339D02*
D03*
Y0131898D02*
D03*
Y0134457D02*
D03*
Y0137016D02*
D03*
X0270487D02*
D03*
Y0134457D02*
D03*
Y0131898D02*
D03*
Y0129339D02*
D03*
Y0126779D02*
D03*
Y0124221D02*
D03*
Y0121661D02*
D03*
Y0119102D02*
D03*
Y0116543D02*
D03*
Y0113984D02*
D03*
D50*
X02483Y016082D02*
D03*
Y01466D02*
D03*
D51*
X0220316Y0109449D02*
D03*
Y0140551D02*
D03*
D52*
X0232Y012D02*
D03*
Y0122441D02*
D03*
Y0125D02*
D03*
Y0127559D02*
D03*
Y0130118D02*
D03*
D53*
X02305Y0163D02*
D03*
Y0173D02*
D03*
X02615Y01D02*
D03*
X02815D02*
D03*
X02915D02*
D03*
X03015D02*
D03*
X03115D02*
D03*
X03215D02*
D03*
X03315D02*
D03*
X03415D02*
D03*
X02715D02*
D03*
X03215Y01975D02*
D03*
X02515D02*
D03*
X02615D02*
D03*
X02715D02*
D03*
X02815D02*
D03*
X02915D02*
D03*
X03015D02*
D03*
X03115D02*
D03*
X03315D02*
D03*
D54*
X02305Y0183D02*
D03*
D55*
X02515Y01D02*
D03*
X03415Y01975D02*
D03*
M02*
