G04*
G04 #@! TF.GenerationSoftware,Altium Limited,Altium Designer,19.0.10 (269)*
G04*
G04 Layer_Physical_Order=1*
G04 Layer_Color=255*
%FSTAX25Y25*%
%MOIN*%
G70*
G01*
G75*
%ADD14C,0.02000*%
G04:AMPARAMS|DCode=21|XSize=59.84mil|YSize=16.14mil|CornerRadius=0.97mil|HoleSize=0mil|Usage=FLASHONLY|Rotation=90.000|XOffset=0mil|YOffset=0mil|HoleType=Round|Shape=RoundedRectangle|*
%AMROUNDEDRECTD21*
21,1,0.05984,0.01421,0,0,90.0*
21,1,0.05791,0.01614,0,0,90.0*
1,1,0.00194,0.00710,0.02895*
1,1,0.00194,0.00710,-0.02895*
1,1,0.00194,-0.00710,-0.02895*
1,1,0.00194,-0.00710,0.02895*
%
%ADD21ROUNDEDRECTD21*%
%ADD22R,0.02362X0.03543*%
%ADD23R,0.01968X0.02362*%
%ADD24R,0.04331X0.08465*%
%ADD25R,0.04331X0.08465*%
%ADD26R,0.13780X0.08465*%
%ADD27R,0.05906X0.02362*%
%ADD28R,0.03543X0.02362*%
%ADD29R,0.06693X0.03150*%
%ADD30R,0.02362X0.01968*%
%ADD31R,0.03937X0.03740*%
%ADD32R,0.07087X0.03937*%
%ADD33R,0.03900X0.01200*%
%ADD34R,0.08268X0.07874*%
%ADD35R,0.07480X0.07480*%
%ADD36R,0.07000X0.01000*%
%ADD56C,0.01000*%
%ADD57C,0.02500*%
%ADD58C,0.06299*%
%ADD59R,0.06299X0.06299*%
%ADD60R,0.06299X0.06299*%
%ADD61C,0.02400*%
G36*
X0296129Y0185984D02*
Y0184682D01*
X0296168Y0184485D01*
Y0181729D01*
X0297397D01*
X0297604Y0181229D01*
X0296907Y0180532D01*
X0296733Y0180272D01*
X0296168D01*
Y0175383D01*
X0293381D01*
Y0180272D01*
X0289019D01*
Y0179223D01*
X0282635D01*
Y0179875D01*
X0278666D01*
Y0175577D01*
X0278642Y0175572D01*
X0278208Y0175283D01*
X0277835Y0175589D01*
Y0179875D01*
X0275861D01*
X0275669Y0180337D01*
X0276751Y0181419D01*
X0277083Y0181915D01*
X0277163Y018232D01*
X0277835D01*
Y0186232D01*
X0278666D01*
Y018232D01*
X0282635D01*
Y0182971D01*
X0289019D01*
Y0181728D01*
X0293381D01*
Y0186232D01*
X029588D01*
X0296129Y0185984D01*
D02*
G37*
G36*
X0222397Y0202456D02*
X0222397Y0202456D01*
X022288Y0202471D01*
X03465D01*
X0346513Y0202473D01*
X0346768Y0202368D01*
X0346873Y0202113D01*
X0346871Y02021D01*
Y00954D01*
X0346873Y0095387D01*
X0346768Y0095132D01*
X0346513Y0095027D01*
X03465Y0095029D01*
X0222988D01*
X022282Y0095029D01*
X0222341Y009504D01*
X022175Y0094962D01*
X0220252Y0095159D01*
X0218856Y0095737D01*
X0217657Y0096657D01*
X0216737Y0097856D01*
X0216159Y0099252D01*
X021604Y0100159D01*
X021604Y0100159D01*
X021604D01*
X0216029Y0100168D01*
Y0104709D01*
X0219816D01*
Y0109449D01*
X0220316D01*
Y0109949D01*
X0225056D01*
Y0114189D01*
X0222029D01*
Y0116332D01*
X0224168Y0118471D01*
X0239297D01*
X0239747Y0118021D01*
X0240243Y0117689D01*
X0240828Y0117573D01*
X0244563D01*
Y0113197D01*
X0244395Y0113029D01*
X0238124D01*
X0238086Y0113086D01*
X0237358Y0113572D01*
X02365Y0113743D01*
X0235642Y0113572D01*
X0234914Y0113086D01*
X0234428Y0112358D01*
X0234257Y01115D01*
X0234428Y0110642D01*
X0234914Y0109914D01*
X0235642Y0109428D01*
X02365Y0109257D01*
X0237358Y0109428D01*
X0238086Y0109914D01*
X0238124Y0109971D01*
X0244215D01*
X0244595Y01095D01*
X0246768D01*
Y01085D01*
X0244624D01*
X0244658Y0108329D01*
X0244349Y0107829D01*
X0241124D01*
X0241086Y0107886D01*
X0240358Y0108372D01*
X02395Y0108543D01*
X0238642Y0108372D01*
X0237914Y0107886D01*
X0237428Y0107158D01*
X0237257Y01063D01*
X0237428Y0105442D01*
X0237914Y0104714D01*
X0238642Y0104228D01*
X02395Y0104057D01*
X0240358Y0104228D01*
X0241086Y0104714D01*
X0241124Y0104771D01*
X02693D01*
X0269885Y0104887D01*
X0270381Y0105219D01*
X0275538Y0110375D01*
X0275746Y0110687D01*
X0276329Y0110812D01*
X0277222Y0109919D01*
X0277331Y0109845D01*
Y010813D01*
X02798D01*
Y0111D01*
Y011387D01*
X0277986D01*
Y0118032D01*
X0286043D01*
X0286171Y0117584D01*
Y011387D01*
X0284732D01*
Y010813D01*
X0286171D01*
Y01075D01*
X0286287Y0106915D01*
X0286619Y0106419D01*
X0287619Y0105419D01*
X0288115Y0105087D01*
X02887Y0104971D01*
X0288876D01*
X0288914Y0104914D01*
X0289642Y0104428D01*
X028991Y0104374D01*
X0289962Y0103854D01*
X0289407Y0103625D01*
X0288541Y010296D01*
X0287875Y0102093D01*
X0287457Y0101083D01*
X0287315Y01D01*
X0287457Y0098917D01*
X0287875Y0097907D01*
X0288541Y009704D01*
X0289407Y0096375D01*
X0290417Y0095957D01*
X02915Y0095815D01*
X0292583Y0095957D01*
X0293593Y0096375D01*
X029446Y009704D01*
X0295125Y0097907D01*
X0295543Y0098917D01*
X0295685Y01D01*
X0295543Y0101083D01*
X0295125Y0102093D01*
X029446Y010296D01*
X0293593Y0103625D01*
X0292583Y0104043D01*
X0291831Y0104142D01*
X0291709Y0104662D01*
X0292086Y0104914D01*
X0292572Y0105642D01*
X0292743Y01065D01*
X0292572Y0107358D01*
X0292086Y0108086D01*
X0291358Y0108572D01*
X0290669Y010871D01*
Y011387D01*
X0289229D01*
Y0120414D01*
X0289113Y0121D01*
X0288781Y0121496D01*
X0288196Y0122081D01*
X02877Y0122413D01*
X0287114Y0122529D01*
X0286043D01*
Y0123969D01*
X0277986D01*
Y0126693D01*
X0281D01*
Y0129661D01*
X02815D01*
Y0130161D01*
X0286043D01*
Y013263D01*
X0286461Y0132827D01*
X0292286D01*
X029247Y0132741D01*
X0292705Y0132375D01*
Y0126693D01*
X0301791D01*
X0301971Y0126267D01*
Y0124394D01*
X0301791Y0123969D01*
X0297748D01*
Y0121D01*
X0297248D01*
Y01205D01*
X0292705D01*
Y0118032D01*
X0295719D01*
Y011387D01*
X0294332D01*
Y01115D01*
X02973D01*
X0300269D01*
Y011387D01*
X0298777D01*
Y0118032D01*
X0301791Y0118032D01*
X0302183Y0117771D01*
X0302419Y0117419D01*
X0303171Y0116666D01*
Y011387D01*
X0301731D01*
Y0108529D01*
X0300269D01*
Y01105D01*
X02973D01*
X0294332D01*
Y010813D01*
X0295835D01*
X0295887Y0107868D01*
X0296219Y0107372D01*
X0297672Y0105919D01*
X0298168Y0105587D01*
X0298753Y0105471D01*
X0309866D01*
X0309971Y0105367D01*
Y0103858D01*
X0309407Y0103625D01*
X0308541Y010296D01*
X0307875Y0102093D01*
X0307457Y0101083D01*
X030738Y01005D01*
X031562D01*
X0315543Y0101083D01*
X0315125Y0102093D01*
X0314459Y010296D01*
X0313593Y0103625D01*
X0313029Y0103858D01*
Y0105222D01*
X031347Y0105458D01*
X0313587Y010538D01*
X0314464Y0105206D01*
X0339085D01*
X0339206Y0105085D01*
Y010347D01*
X0338541Y010296D01*
X0337875Y0102093D01*
X0337457Y0101083D01*
X0337315Y01D01*
X0337457Y0098917D01*
X0337875Y0097907D01*
X0338541Y009704D01*
X0339407Y0096375D01*
X0340417Y0095957D01*
X03415Y0095815D01*
X0342583Y0095957D01*
X0343593Y0096375D01*
X034446Y009704D01*
X0345125Y0097907D01*
X0345543Y0098917D01*
X0345685Y01D01*
X0345543Y0101083D01*
X0345125Y0102093D01*
X034446Y010296D01*
X0343794Y010347D01*
Y0106035D01*
X0343619Y0106913D01*
X0343122Y0107658D01*
X0342308Y0108472D01*
X03425Y0108933D01*
X0343669D01*
Y011058D01*
X0343881Y0110722D01*
X0345581Y0112422D01*
X0345913Y0112918D01*
X0346029Y0113504D01*
Y01315D01*
Y0158414D01*
X0345913Y0159D01*
X0345581Y0159496D01*
X0344996Y0160081D01*
X0344499Y0160413D01*
X0343914Y0160529D01*
X0343847D01*
Y0161268D01*
X0341029D01*
Y0167432D01*
X0343847D01*
Y0169507D01*
X0335154D01*
Y0167432D01*
X0337971D01*
Y0161268D01*
X0335154D01*
Y0159193D01*
X03395D01*
Y0158693D01*
X034D01*
Y0156118D01*
X0342971D01*
Y0147882D01*
X0341029D01*
Y01485D01*
X0340913Y0149085D01*
X0340581Y0149581D01*
X0332881Y0157281D01*
X0332385Y0157613D01*
X03318Y0157729D01*
X0330064D01*
X0329797Y0158229D01*
X0330072Y0158642D01*
X0330243Y01595D01*
X0330072Y0160358D01*
X0329586Y0161086D01*
X0329537Y0161119D01*
Y0161742D01*
X0329759Y0162074D01*
X0329844Y0162502D01*
Y0168293D01*
X0329759Y0168721D01*
X0329517Y0169084D01*
X0329154Y0169326D01*
X0328726Y0169411D01*
X0327306D01*
X0326986Y0169673D01*
Y0170365D01*
X032746Y0170765D01*
X03275Y0170757D01*
X0328358Y0170928D01*
X0329086Y0171414D01*
X0329572Y0172142D01*
X0329743Y0173D01*
X0329572Y0173858D01*
X0329086Y0174586D01*
X0328358Y0175072D01*
X03275Y0175243D01*
X0326642Y0175072D01*
X0325914Y0174586D01*
X0325428Y0173858D01*
X0325331Y0173373D01*
X0324375Y0172417D01*
X0324044Y0171921D01*
X0323927Y0171335D01*
Y0169673D01*
X0323608Y0169411D01*
X0322187D01*
X0321868Y0169673D01*
Y0170826D01*
X0321873Y0170831D01*
X0322358Y0170928D01*
X0323086Y0171414D01*
X0323572Y0172142D01*
X0323743Y0173D01*
X0323572Y0173858D01*
X0323086Y0174586D01*
X0322449Y0175012D01*
X0322509Y0175453D01*
X0322532Y0175512D01*
X0323453D01*
Y0179904D01*
X0325729D01*
Y0178851D01*
X0328501D01*
Y0178351D01*
X0329D01*
Y017617D01*
X0331272D01*
Y0176822D01*
X0337971D01*
Y0172582D01*
X0335154D01*
Y0170507D01*
X0343847D01*
Y0172582D01*
X0341029D01*
Y0177745D01*
X0340913Y017833D01*
X0340581Y0178826D01*
X0339975Y0179433D01*
X0339479Y0179764D01*
X0338893Y0179881D01*
X0331272D01*
Y0180532D01*
X033003D01*
Y0180847D01*
X0329913Y0181432D01*
X0329582Y0181929D01*
X0328996Y0182515D01*
X0328928Y018256D01*
X0328798Y0183239D01*
X0328852Y0183319D01*
X0331272D01*
Y0187681D01*
X0325728D01*
Y0186866D01*
X0323453D01*
Y0187354D01*
X0315547D01*
Y0182992D01*
Y0181933D01*
X03195D01*
Y0180933D01*
X0315547D01*
Y0179732D01*
X0315039D01*
Y0180821D01*
X0314884Y0181601D01*
X0314442Y0182263D01*
X0313762Y0182942D01*
X0313101Y0183384D01*
X031232Y0183539D01*
X0311642D01*
Y0187354D01*
X0308029D01*
Y0188414D01*
X0307913Y0188999D01*
X0307581Y0189496D01*
X0306297Y019078D01*
X0306488Y0191242D01*
X0335009D01*
X0337971Y0188281D01*
Y0185968D01*
X0335154D01*
Y0180818D01*
X0343847D01*
Y0185968D01*
X0341029D01*
Y0188914D01*
X0340913Y0189499D01*
X0340581Y0189996D01*
X0337727Y019285D01*
X0337934Y019335D01*
X034565D01*
Y020165D01*
X033735D01*
Y0193934D01*
X033685Y0193727D01*
X0336724Y0193853D01*
X0336228Y0194185D01*
X0335643Y0194301D01*
X0334906D01*
X033466Y0194801D01*
X0335125Y0195407D01*
X0335543Y0196417D01*
X0335685Y01975D01*
X0335543Y0198583D01*
X0335125Y0199593D01*
X0334459Y020046D01*
X0333593Y0201125D01*
X0332583Y0201543D01*
X03315Y0201685D01*
X0330417Y0201543D01*
X0329407Y0201125D01*
X032854Y020046D01*
X0327875Y0199593D01*
X0327457Y0198583D01*
X0327315Y01975D01*
X0327457Y0196417D01*
X0327875Y0195407D01*
X0328341Y0194801D01*
X0328094Y0194301D01*
X0324906D01*
X0324659Y0194801D01*
X0325125Y0195407D01*
X0325543Y0196417D01*
X0325685Y01975D01*
X0325543Y0198583D01*
X0325125Y0199593D01*
X032446Y020046D01*
X0323593Y0201125D01*
X0322583Y0201543D01*
X03215Y0201685D01*
X0320417Y0201543D01*
X0319407Y0201125D01*
X0318541Y020046D01*
X0317875Y0199593D01*
X0317457Y0198583D01*
X0317315Y01975D01*
X0317457Y0196417D01*
X0317875Y0195407D01*
X031834Y0194801D01*
X0318094Y0194301D01*
X0314906D01*
X031466Y0194801D01*
X0315125Y0195407D01*
X0315543Y0196417D01*
X0315685Y01975D01*
X0315543Y0198583D01*
X0315125Y0199593D01*
X0314459Y020046D01*
X0313593Y0201125D01*
X0312583Y0201543D01*
X03115Y0201685D01*
X0310417Y0201543D01*
X0309407Y0201125D01*
X0308541Y020046D01*
X0307875Y0199593D01*
X0307457Y0198583D01*
X0307315Y01975D01*
X0307457Y0196417D01*
X0307875Y0195407D01*
X0308341Y0194801D01*
X0308094Y0194301D01*
X0304906D01*
X030466Y0194801D01*
X0305125Y0195407D01*
X0305543Y0196417D01*
X0305685Y01975D01*
X0305543Y0198583D01*
X0305125Y0199593D01*
X030446Y020046D01*
X0303593Y0201125D01*
X0302583Y0201543D01*
X03015Y0201685D01*
X0300417Y0201543D01*
X0299407Y0201125D01*
X029854Y020046D01*
X0297875Y0199593D01*
X0297457Y0198583D01*
X0297315Y01975D01*
X0297457Y0196417D01*
X0297875Y0195407D01*
X0298341Y0194801D01*
X0298094Y0194301D01*
X0294906D01*
X0294659Y0194801D01*
X0295125Y0195407D01*
X0295543Y0196417D01*
X0295685Y01975D01*
X0295543Y0198583D01*
X0295125Y0199593D01*
X029446Y020046D01*
X0293593Y0201125D01*
X0292583Y0201543D01*
X02915Y0201685D01*
X0290417Y0201543D01*
X0289407Y0201125D01*
X0288541Y020046D01*
X0287875Y0199593D01*
X0287457Y0198583D01*
X0287315Y01975D01*
X0287457Y0196417D01*
X0287875Y0195407D01*
X028834Y0194801D01*
X0288094Y0194301D01*
X0284906D01*
X028466Y0194801D01*
X0285125Y0195407D01*
X0285543Y0196417D01*
X0285685Y01975D01*
X0285543Y0198583D01*
X0285125Y0199593D01*
X0284459Y020046D01*
X0283593Y0201125D01*
X0282583Y0201543D01*
X02815Y0201685D01*
X0280417Y0201543D01*
X0279407Y0201125D01*
X027854Y020046D01*
X0277875Y0199593D01*
X0277457Y0198583D01*
X0277315Y01975D01*
X0277457Y0196417D01*
X0277875Y0195407D01*
X0278341Y0194801D01*
X0278094Y0194301D01*
X0274906D01*
X0274659Y0194801D01*
X0275125Y0195407D01*
X0275543Y0196417D01*
X0275685Y01975D01*
X0275543Y0198583D01*
X0275125Y0199593D01*
X027446Y020046D01*
X0273593Y0201125D01*
X0272583Y0201543D01*
X02715Y0201685D01*
X0270417Y0201543D01*
X0269407Y0201125D01*
X0268541Y020046D01*
X0267875Y0199593D01*
X0267457Y0198583D01*
X0267315Y01975D01*
X0267457Y0196417D01*
X0267875Y0195407D01*
X026834Y0194801D01*
X0268094Y0194301D01*
X0267846D01*
X0267261Y0194185D01*
X0266764Y0193853D01*
X0260681Y0187769D01*
X0260181Y0187772D01*
X0260181Y0187772D01*
X0260181Y0187772D01*
X0255819D01*
Y018603D01*
X0250772D01*
Y0186682D01*
X0248308D01*
X0248Y0186743D01*
X0247692Y0186682D01*
X0245228D01*
Y018232D01*
X0247684D01*
X0248Y0182257D01*
X0248316Y018232D01*
X0250772D01*
Y0182971D01*
X0255819D01*
Y018235D01*
X025382D01*
X0253235Y0182234D01*
X0252739Y0181902D01*
X0251419Y0180581D01*
X0251087Y0180085D01*
X0251053Y0179916D01*
X0250772Y0179533D01*
X0245229D01*
Y0178881D01*
X024463D01*
X0244208Y0179321D01*
X0244243Y01795D01*
X0244072Y0180358D01*
X0243963Y0180523D01*
Y0181905D01*
X0243807Y0182685D01*
X0243365Y0183347D01*
X0243365Y0183347D01*
X024227Y0184442D01*
X0241609Y0184884D01*
X0240828Y0185039D01*
X023465D01*
Y018715D01*
X022635D01*
Y017885D01*
X023465D01*
Y0180961D01*
X0239884D01*
Y018014D01*
X0239757Y01795D01*
X0239928Y0178642D01*
X0240414Y0177914D01*
X0241142Y0177428D01*
X0241489Y0177359D01*
X0241653Y0176816D01*
X0236919Y0172081D01*
X0236587Y0171585D01*
X0236471Y0171D01*
Y0158633D01*
X0232419Y0154581D01*
X0232087Y0154085D01*
X0231971Y01535D01*
Y0151624D01*
X0231914Y0151586D01*
X0231428Y0150858D01*
X0231257Y015D01*
X0231428Y0149142D01*
X0231914Y0148414D01*
X0232642Y0147928D01*
X02335Y0147757D01*
X0234358Y0147928D01*
X023479Y0148216D01*
X0235036Y0148102D01*
X023527Y0147935D01*
X0235428Y0147142D01*
X0235914Y0146414D01*
X0236642Y0145928D01*
X0237138Y0145829D01*
X0237302Y0145286D01*
X0230558Y0138542D01*
X0230116Y013788D01*
X0229961Y01371D01*
Y0131618D01*
X02275D01*
Y0128618D01*
Y0126059D01*
Y0121529D01*
X0223535D01*
X0222949Y0121413D01*
X0222529Y0121132D01*
X0222029Y0121279D01*
Y0135811D01*
X0225056D01*
Y0140051D01*
X0220316D01*
Y0141051D01*
X0225056D01*
Y0145291D01*
X0222029D01*
Y0162366D01*
X0228853Y0169191D01*
X0229417Y0168957D01*
X023Y016888D01*
Y01725D01*
X022638D01*
X0226457Y0171917D01*
X0226691Y0171353D01*
X0219419Y0164081D01*
X0219087Y0163585D01*
X0218971Y0163D01*
Y0145291D01*
X0216029D01*
Y0196884D01*
X0216044Y0196897D01*
X0216044D01*
X0216044Y0196897D01*
X021612Y019767D01*
X0216461Y0198794D01*
X0217015Y0199831D01*
X021776Y020074D01*
X0218669Y0201485D01*
X0219706Y0202039D01*
X022083Y020238D01*
X02219Y0202486D01*
X0222397Y0202456D01*
D02*
G37*
G36*
X0289019Y0174927D02*
X0288695Y0174711D01*
X0284421Y0170437D01*
X0281335D01*
Y0159972D01*
X0282206D01*
Y0153684D01*
X0281744Y0153492D01*
X0281114Y0154122D01*
X028037Y015462D01*
X0279492Y0154794D01*
X0277901D01*
X0277599Y0155294D01*
X0277739Y0156D01*
Y0159972D01*
X027861D01*
Y0170437D01*
X0276824D01*
Y017047D01*
X0276649Y0171348D01*
X0276152Y0172093D01*
X0275287Y0172958D01*
X0274542Y0173455D01*
X0273664Y017363D01*
X0272812D01*
X0272661Y017413D01*
X0273086Y0174414D01*
X0273569Y0175136D01*
X0273821Y0175455D01*
X0274321Y0175423D01*
Y0175409D01*
X0274437Y0174824D01*
X0274769Y0174328D01*
X0276678Y0172419D01*
X0277174Y0172087D01*
X027776Y0171971D01*
X0277876D01*
X0277914Y0171914D01*
X0278642Y0171428D01*
X02795Y0171257D01*
X0280358Y0171428D01*
X0281086Y0171914D01*
X0281572Y0172642D01*
X0281743Y01735D01*
X0281572Y0174358D01*
X0281135Y0175013D01*
X0281279Y0175513D01*
X0282635D01*
Y0176164D01*
X0289019D01*
Y0174927D01*
D02*
G37*
G36*
X031273Y0176251D02*
X031273Y0176251D01*
X0313391Y0175809D01*
X0314172Y0175654D01*
X0315547D01*
Y0175512D01*
X0320468D01*
X0320491Y0175453D01*
X0320551Y0175012D01*
X0319914Y0174586D01*
X0319428Y0173858D01*
X0319257Y0173D01*
X0319333Y0172617D01*
X0319257Y0172541D01*
X0318926Y0172045D01*
X0318809Y017146D01*
Y0169673D01*
X031849Y0169411D01*
X0317069D01*
X031675Y0169673D01*
Y0170376D01*
X0316807Y0170414D01*
X0317293Y0171142D01*
X0317464Y0172D01*
X0317293Y0172858D01*
X0316807Y0173586D01*
X0316079Y0174072D01*
X031522Y0174243D01*
X0314362Y0174072D01*
X0313634Y0173586D01*
X0313174Y0172897D01*
X0313017Y0172881D01*
X0312655Y0172943D01*
X0312572Y0173358D01*
X0312086Y0174086D01*
X0311358Y0174572D01*
X03105Y0174743D01*
X0309642Y0174572D01*
X0308914Y0174086D01*
X0308428Y0173358D01*
X0308257Y01725D01*
X0308306Y0172255D01*
X0307989Y0171868D01*
X0305762D01*
X030557Y017233D01*
X0308752Y0175512D01*
X0311642D01*
Y0176686D01*
X0312104Y0176877D01*
X031273Y0176251D01*
D02*
G37*
G36*
X0272235Y016612D02*
X027228Y0165898D01*
Y0159972D01*
X0273151D01*
Y0157247D01*
X0272689Y0157055D01*
X0270072Y0159672D01*
X0269328Y0160169D01*
X026845Y0160344D01*
X0267429D01*
X0267113Y0160844D01*
X0267144Y0161D01*
X0262856D01*
X0262887Y0160844D01*
X0262853Y0160779D01*
X0262346Y0160619D01*
X0261622Y0161343D01*
X0260878Y016184D01*
X026Y0162015D01*
X0259122Y016184D01*
X0258378Y0161343D01*
X025788Y0160598D01*
X0257706Y0159721D01*
X025788Y0158843D01*
X0258378Y0158098D01*
X0259795Y0156681D01*
X0259588Y0156181D01*
X0258116D01*
Y0155529D01*
X0257616D01*
X0257031Y0155413D01*
X0256534Y0155081D01*
X0256491Y0155038D01*
X0256029Y015523D01*
Y0162859D01*
X0256417Y016313D01*
X0262354D01*
Y016887D01*
X0262783Y0169042D01*
X0263388D01*
X0263817Y016887D01*
Y01665D01*
X0266786D01*
X0269754D01*
Y016887D01*
X0270183Y0169042D01*
X0272235D01*
Y016612D01*
D02*
G37*
G36*
X0301666Y0170333D02*
X0298419Y0167085D01*
X0298087Y0166589D01*
X0297971Y0166004D01*
Y0160317D01*
X0297914Y0160279D01*
X0297428Y0159551D01*
X0297257Y0158693D01*
X0297428Y0157834D01*
X0297914Y0157107D01*
X0298642Y0156621D01*
X02995Y015645D01*
X0300358Y0156621D01*
X0301086Y0157107D01*
X0301572Y0157834D01*
X0301743Y0158693D01*
X0301572Y0159551D01*
X0301086Y0160279D01*
X0301029Y0160317D01*
Y016537D01*
X0302694Y0167035D01*
X0303156Y0166843D01*
Y0162502D01*
X0303241Y0162074D01*
X0303463Y0161742D01*
Y0160119D01*
X0303414Y0160086D01*
X0302928Y0159358D01*
X0302757Y01585D01*
X0302928Y0157642D01*
X0303414Y0156914D01*
X0304142Y0156428D01*
X0305Y0156257D01*
X0305858Y0156428D01*
X0306586Y0156914D01*
X0307072Y0157642D01*
X0307397Y0157559D01*
X0307415Y0157548D01*
X0308Y0157431D01*
X0309697D01*
X0309914Y0157107D01*
X0310482Y0156727D01*
X0310617Y0156154D01*
X0309726Y0155263D01*
X0300734D01*
X0300149Y0155147D01*
X0299653Y0154815D01*
X0298067Y015323D01*
X0298Y0153243D01*
X0297142Y0153072D01*
X0296414Y0152586D01*
X0295928Y0151858D01*
X0295757Y0151D01*
X0295928Y0150142D01*
X0296414Y0149414D01*
X0297142Y0148928D01*
X0298Y0148757D01*
X0298858Y0148928D01*
X0299586Y0149414D01*
X0300072Y0150142D01*
X0300243Y0151D01*
X030023Y0151067D01*
X0301367Y0152205D01*
X03073D01*
X0307349Y0151705D01*
X0306685Y0151572D01*
X0305957Y0151086D01*
X0305471Y0150358D01*
X03053Y01495D01*
X0305471Y0148642D01*
X0305957Y0147914D01*
X0306014Y0147876D01*
Y0146878D01*
X0305695Y0146616D01*
X0304274D01*
X0303846Y0146531D01*
X0303483Y0146288D01*
X0303241Y0145926D01*
X0303156Y0145498D01*
Y0142937D01*
X0301303Y0141084D01*
X03005Y0141243D01*
X0299829Y014111D01*
X0299329Y0141419D01*
Y0142942D01*
X0300181Y0143793D01*
X0300858Y0143928D01*
X0301586Y0144414D01*
X0302072Y0145142D01*
X0302243Y0146D01*
X0302072Y0146858D01*
X0301586Y0147586D01*
X0300858Y0148072D01*
X03Y0148243D01*
X0299142Y0148072D01*
X0298414Y0147586D01*
X0297928Y0146858D01*
X0297757Y0146D01*
X0297808Y0145746D01*
X0296719Y0144657D01*
X0296387Y014416D01*
X0296271Y0143575D01*
Y013263D01*
X029343D01*
X0293278Y013313D01*
X0293496Y0133275D01*
X0294181Y0133961D01*
X0294513Y0134457D01*
X0294629Y0135043D01*
Y0146868D01*
X0294686Y0146906D01*
X0295172Y0147634D01*
X0295244Y0147992D01*
X0290956D01*
X0291028Y0147634D01*
X0291514Y0146906D01*
X0291571Y0146868D01*
Y0146028D01*
X0286794D01*
Y0147492D01*
Y0159972D01*
X0287665D01*
Y0167193D01*
X0289928Y0169455D01*
X029039Y0169264D01*
Y0165705D01*
X0293555D01*
X0296721D01*
Y0170437D01*
X0297064Y0170794D01*
X0301474D01*
X0301666Y0170333D01*
D02*
G37*
G36*
X0270313Y0152943D02*
X0270323Y0152928D01*
X0272221Y0151029D01*
X0272014Y0150529D01*
X02715D01*
X0270915Y0150413D01*
X0270419Y0150081D01*
X0269406Y0149069D01*
X0269126Y014865D01*
X026883Y0148272D01*
X0267698D01*
X0264595Y0151375D01*
X0264882Y0151795D01*
X0265074Y0151757D01*
X0265386Y0151819D01*
X0266884D01*
Y0152749D01*
X0267147Y0153142D01*
X0267218Y01535D01*
X0265074D01*
Y01545D01*
X0267218D01*
X0267147Y0154858D01*
X0266884Y0155251D01*
Y0155756D01*
X02675D01*
X0270313Y0152943D01*
D02*
G37*
G36*
X0250264Y0170009D02*
X0246013Y0165758D01*
X0243166D01*
Y0155884D01*
X0252971D01*
Y0151537D01*
X0243166D01*
Y0148639D01*
X02415D01*
X024072Y0148484D01*
X0240223Y0148152D01*
X0239763Y0148286D01*
X0239671Y0148362D01*
X0239572Y0148858D01*
X0239086Y0149586D01*
X0239029Y0149624D01*
Y0153867D01*
X0241581Y0156419D01*
X0241913Y0156915D01*
X0242029Y01575D01*
Y0167367D01*
X0245133Y0170471D01*
X0250073D01*
X0250264Y0170009D01*
D02*
G37*
G36*
X0282206Y0146542D02*
Y0146028D01*
X027661D01*
Y0135563D01*
X0279441D01*
X0279639Y013514D01*
X0279654Y0135063D01*
X0279335Y0134585D01*
X0279219Y0134D01*
Y013263D01*
X0276957D01*
Y0131911D01*
X027653Y0131826D01*
X0276486Y0131797D01*
X0275986Y0132064D01*
Y0133458D01*
X027587Y0134043D01*
X0275538Y0134539D01*
X0274639Y0135438D01*
X0274143Y013577D01*
X0273557Y0135886D01*
X0273437D01*
Y0138616D01*
X0272017D01*
Y0147354D01*
X0272133Y0147471D01*
X0274376D01*
X0274414Y0147414D01*
X0275142Y0146928D01*
X0276Y0146757D01*
X0276858Y0146928D01*
X0277586Y0147414D01*
X0278072Y0148142D01*
X0278243Y0149D01*
X0278168Y0149379D01*
X0278531Y0149896D01*
X0278815Y0149933D01*
X0282206Y0146542D01*
D02*
G37*
G36*
X0264431Y0145772D02*
Y0145679D01*
X0264468Y0145493D01*
Y0142729D01*
X026883D01*
X0268958Y0142282D01*
Y0138616D01*
X0267537D01*
Y0133529D01*
X0263124D01*
X0263086Y0133586D01*
X0262358Y0134072D01*
X02615Y0134243D01*
X0260642Y0134072D01*
X0259914Y0133586D01*
X0259428Y0132858D01*
X0259389Y0132665D01*
X0258911Y013252D01*
X0256581Y0134849D01*
X0256581Y0134849D01*
X0256029Y0135401D01*
Y0145249D01*
X0256491Y014544D01*
X0256923Y0145009D01*
X0257319Y0144745D01*
Y0142728D01*
X0261681D01*
Y0147792D01*
X0261699Y0147822D01*
X0262181Y0148022D01*
X0264431Y0145772D01*
D02*
G37*
G36*
X0329689Y0138832D02*
X0329971Y0138696D01*
Y0135342D01*
X0329471Y0135163D01*
X0328858Y0135572D01*
X03285Y0135644D01*
Y01335D01*
X0328D01*
Y0133D01*
X0325856D01*
X0325928Y0132642D01*
X0326414Y0131914D01*
X0326721Y0131709D01*
Y0129088D01*
X0326319D01*
Y0127603D01*
X03285D01*
Y0127103D01*
X0329D01*
Y0125119D01*
X0330018D01*
X0330171Y0124967D01*
Y0124288D01*
X0326319D01*
Y0122529D01*
X0325272D01*
Y0123181D01*
X0319728D01*
Y0120161D01*
X0319228Y0119954D01*
X0318168Y0121014D01*
Y012387D01*
X0317239D01*
Y012563D01*
X0318168D01*
Y013137D01*
X0315115D01*
X0312049Y0134436D01*
X0312296Y0134897D01*
X0313Y0134757D01*
X0313858Y0134928D01*
X0314586Y0135414D01*
X0315072Y0136142D01*
X0315243Y0137D01*
X0315072Y0137858D01*
X0314918Y0138089D01*
X0315186Y0138589D01*
X0315931D01*
X0316263Y0138655D01*
X0316367Y0138135D01*
X0316698Y0137639D01*
X0316703Y0137634D01*
Y013577D01*
X0316428Y0135358D01*
X0316257Y01345D01*
X0316428Y0133642D01*
X0316914Y0132914D01*
X0317642Y0132428D01*
X03185Y0132257D01*
X0319358Y0132428D01*
X031979Y0132716D01*
X0320036Y0132602D01*
X032027Y0132435D01*
X0320428Y0131642D01*
X0320914Y0130914D01*
X0320971Y0130876D01*
Y013033D01*
X0319728D01*
Y0125968D01*
X0325271D01*
Y013033D01*
X0324029D01*
Y0130876D01*
X0324086Y0130914D01*
X0324572Y0131642D01*
X0324743Y01325D01*
X0324572Y0133358D01*
X0324228Y0133873D01*
Y0138182D01*
X0324728Y0138592D01*
X0324746Y0138589D01*
X0326167D01*
X0326595Y0138674D01*
X0326736Y0138768D01*
X0326878Y0138674D01*
X0327306Y0138589D01*
X0328726D01*
X0329154Y0138674D01*
X0329471Y0138885D01*
X0329689Y0138832D01*
D02*
G37*
G36*
X0303483Y0138916D02*
X0303846Y0138674D01*
X0304274Y0138589D01*
X0305695D01*
X0306122Y0138674D01*
X0306264Y0138768D01*
X0306405Y0138674D01*
X0306833Y0138589D01*
X0308254D01*
X0308682Y0138674D01*
X0308941Y013846D01*
X0309273Y0137964D01*
X0310886Y0136351D01*
X0310928Y0136142D01*
X0311046Y0135965D01*
X0310685Y0135604D01*
X0310614Y0135652D01*
X0309834Y0135807D01*
X0304908D01*
X0304858Y013584D01*
X0304Y0136011D01*
X0303142Y013584D01*
X0302414Y0135354D01*
X0301928Y0134626D01*
X0301757Y0133768D01*
X0301892Y0133088D01*
X0301603Y0132691D01*
X0301513Y013263D01*
X0299329D01*
Y0136581D01*
X0299829Y013689D01*
X03005Y0136757D01*
X0301358Y0136928D01*
X0302086Y0137414D01*
X0302391Y013787D01*
X0302463Y0137919D01*
X0303463Y0138918D01*
X0303483Y0138916D01*
D02*
G37*
G36*
X0337493Y0148344D02*
X0337302Y0147882D01*
X0335154D01*
Y0142732D01*
X0342971D01*
Y0137268D01*
X034D01*
Y0134693D01*
Y0132118D01*
X0341684D01*
X0342971Y0130831D01*
Y0123882D01*
X0335281D01*
X0335229Y0123933D01*
Y01303D01*
X0335113Y0130885D01*
X0334781Y0131381D01*
X0333029Y0133133D01*
Y0152D01*
X0333004Y0152126D01*
X0333465Y0152372D01*
X0337493Y0148344D01*
D02*
G37*
G36*
X0243166Y0141663D02*
X0252971D01*
Y0134768D01*
X0253087Y0134183D01*
X0253419Y0133686D01*
X0254418Y0132686D01*
X0254419Y0132686D01*
X0256721Y0130384D01*
Y0121874D01*
X0256259Y0121682D01*
X0255125Y0122816D01*
Y0128592D01*
X0255158Y0128642D01*
X0255329Y01295D01*
X0255158Y0130358D01*
X0254672Y0131086D01*
X0253944Y0131572D01*
X0253086Y0131743D01*
X0252227Y0131572D01*
X02515Y0131086D01*
X0251408Y0130949D01*
X0250463D01*
Y0135416D01*
Y0138616D01*
X0244563D01*
Y0135202D01*
X0244101Y0135011D01*
X0243179Y0135933D01*
X0243192Y0136D01*
X0243021Y0136858D01*
X0242535Y0137586D01*
X0241807Y0138072D01*
X0240949Y0138243D01*
X024009Y0138072D01*
X0239363Y0137586D01*
X0238877Y0136858D01*
X0238706Y0136D01*
X0238877Y0135142D01*
X0239363Y0134414D01*
X024009Y0133928D01*
X0240949Y0133757D01*
X0241016Y013377D01*
X024387Y0130916D01*
X0244366Y0130585D01*
X0244563Y0130545D01*
Y012575D01*
X0242962D01*
X0240071Y012864D01*
X0239575Y0128972D01*
X023899Y0129088D01*
X02365D01*
Y0131618D01*
X0234039D01*
Y0136255D01*
X0242345Y0144561D01*
X0243166D01*
Y0141663D01*
D02*
G37*
G36*
X0267537Y0123721D02*
Y0120061D01*
Y0115514D01*
X0261633D01*
X0259779Y0117368D01*
Y0121402D01*
X0260279Y012167D01*
X0260642Y0121428D01*
X02615Y0121257D01*
X0262358Y0121428D01*
X0263086Y0121914D01*
X0263124Y0121971D01*
X02645D01*
X0265085Y0122087D01*
X0265581Y0122419D01*
X0267075Y0123913D01*
X0267537Y0123721D01*
D02*
G37*
G36*
X0312231Y0128486D02*
Y012563D01*
X0313161D01*
Y012387D01*
X0312231D01*
Y011813D01*
X0315285D01*
X031625Y0117165D01*
X0316058Y0116703D01*
X031096D01*
X0310033Y011763D01*
X0310159Y011813D01*
X0310769D01*
Y01205D01*
X03078D01*
Y01215D01*
X0310769D01*
Y012387D01*
X0309329D01*
Y012563D01*
X0310769D01*
Y0128D01*
X03078D01*
Y0129D01*
X0310769D01*
Y0129296D01*
X031123Y0129487D01*
X0312231Y0128486D01*
D02*
G37*
G36*
X0218971Y0117D02*
Y0114189D01*
X0216029D01*
Y0135811D01*
X0218971D01*
Y0117D01*
D02*
G37*
G36*
X0260415Y0112571D02*
X0261Y0112455D01*
X0267537D01*
Y0112384D01*
X0272514D01*
X0272721Y0111884D01*
X0268667Y0107829D01*
X0259917D01*
X0259649Y0108329D01*
X0259858Y0108642D01*
X0260029Y01095D01*
X0259858Y0110358D01*
X0259788Y0110464D01*
Y0112389D01*
X0260288Y0112656D01*
X0260415Y0112571D01*
D02*
G37*
%LPC*%
G36*
X0252Y020162D02*
Y0198D01*
X025562D01*
X0255543Y0198583D01*
X0255125Y0199593D01*
X025446Y020046D01*
X0253593Y0201125D01*
X0252583Y0201543D01*
X0252Y020162D01*
D02*
G37*
G36*
X0251D02*
X0250417Y0201543D01*
X0249407Y0201125D01*
X024854Y020046D01*
X0247875Y0199593D01*
X0247457Y0198583D01*
X024738Y0198D01*
X0251D01*
Y020162D01*
D02*
G37*
G36*
X025562Y0197D02*
X0252D01*
Y019338D01*
X0252583Y0193457D01*
X0253593Y0193875D01*
X025446Y0194541D01*
X0255125Y0195407D01*
X0255543Y0196417D01*
X025562Y0197D01*
D02*
G37*
G36*
X0251D02*
X024738D01*
X0247457Y0196417D01*
X0247875Y0195407D01*
X024854Y0194541D01*
X0249407Y0193875D01*
X0250417Y0193457D01*
X0251Y019338D01*
Y0197D01*
D02*
G37*
G36*
X02615Y0201685D02*
X0260417Y0201543D01*
X0259407Y0201125D01*
X0258541Y020046D01*
X0257875Y0199593D01*
X0257457Y0198583D01*
X0257315Y01975D01*
X0257457Y0196417D01*
X0257875Y0195407D01*
X0258541Y0194541D01*
X0259407Y0193875D01*
X0260417Y0193457D01*
X02615Y0193315D01*
X0262583Y0193457D01*
X0263593Y0193875D01*
X0264459Y0194541D01*
X0265125Y0195407D01*
X0265543Y0196417D01*
X0265685Y01975D01*
X0265543Y0198583D01*
X0265125Y0199593D01*
X0264459Y020046D01*
X0263593Y0201125D01*
X0262583Y0201543D01*
X02615Y0201685D01*
D02*
G37*
G36*
X0328Y0177851D02*
X0325729D01*
Y017617D01*
X0328D01*
Y0177851D01*
D02*
G37*
G36*
X0231Y017712D02*
Y01735D01*
X023462D01*
X0234543Y0174083D01*
X0234125Y0175093D01*
X0233459Y017596D01*
X0232593Y0176625D01*
X0231583Y0177043D01*
X0231Y017712D01*
D02*
G37*
G36*
X023D02*
X0229417Y0177043D01*
X0228407Y0176625D01*
X022754Y017596D01*
X0226875Y0175093D01*
X0226457Y0174083D01*
X022638Y01735D01*
X023D01*
Y017712D01*
D02*
G37*
G36*
X023462Y01725D02*
X0231D01*
Y016888D01*
X0231583Y0168957D01*
X0232593Y0169375D01*
X0233459Y0170041D01*
X0234125Y0170907D01*
X0234543Y0171917D01*
X023462Y01725D01*
D02*
G37*
G36*
X02305Y0167185D02*
X0229417Y0167043D01*
X0228407Y0166625D01*
X022754Y016596D01*
X0226875Y0165093D01*
X0226457Y0164083D01*
X0226315Y0163D01*
X0226457Y0161917D01*
X0226875Y0160907D01*
X022754Y016004D01*
X0228407Y0159375D01*
X0229417Y0158957D01*
X02305Y0158815D01*
X0231583Y0158957D01*
X0232593Y0159375D01*
X0233459Y016004D01*
X0234125Y0160907D01*
X0234543Y0161917D01*
X0234685Y0163D01*
X0234543Y0164083D01*
X0234125Y0165093D01*
X0233459Y016596D01*
X0232593Y0166625D01*
X0231583Y0167043D01*
X02305Y0167185D01*
D02*
G37*
G36*
X0339Y0158193D02*
X0335154D01*
Y0156118D01*
X0339D01*
Y0158193D01*
D02*
G37*
G36*
X0286043Y0129161D02*
X0282D01*
Y0126693D01*
X0286043D01*
Y0129161D01*
D02*
G37*
G36*
X0296748Y0123969D02*
X0292705D01*
Y01215D01*
X0296748D01*
Y0123969D01*
D02*
G37*
G36*
X0283268Y011387D02*
X02808D01*
Y01115D01*
X0283268D01*
Y011387D01*
D02*
G37*
G36*
Y01105D02*
X02808D01*
Y010813D01*
X0283268D01*
Y01105D01*
D02*
G37*
G36*
X0225056Y0108949D02*
X0220816D01*
Y0104709D01*
X0225056D01*
Y0108949D01*
D02*
G37*
G36*
X0322Y010412D02*
Y01005D01*
X032562D01*
X0325543Y0101083D01*
X0325125Y0102093D01*
X032446Y010296D01*
X0323593Y0103625D01*
X0322583Y0104043D01*
X0322Y010412D01*
D02*
G37*
G36*
X0321D02*
X0320417Y0104043D01*
X0319407Y0103625D01*
X0318541Y010296D01*
X0317875Y0102093D01*
X0317457Y0101083D01*
X031738Y01005D01*
X0321D01*
Y010412D01*
D02*
G37*
G36*
X032562Y00995D02*
X0322D01*
Y009588D01*
X0322583Y0095957D01*
X0323593Y0096375D01*
X032446Y009704D01*
X0325125Y0097907D01*
X0325543Y0098917D01*
X032562Y00995D01*
D02*
G37*
G36*
X0321D02*
X031738D01*
X0317457Y0098917D01*
X0317875Y0097907D01*
X0318541Y009704D01*
X0319407Y0096375D01*
X0320417Y0095957D01*
X0321Y009588D01*
Y00995D01*
D02*
G37*
G36*
X031562D02*
X0312D01*
Y009588D01*
X0312583Y0095957D01*
X0313593Y0096375D01*
X0314459Y009704D01*
X0315125Y0097907D01*
X0315543Y0098917D01*
X031562Y00995D01*
D02*
G37*
G36*
X0311D02*
X030738D01*
X0307457Y0098917D01*
X0307875Y0097907D01*
X0308541Y009704D01*
X0309407Y0096375D01*
X0310417Y0095957D01*
X0311Y009588D01*
Y00995D01*
D02*
G37*
G36*
X025565Y010415D02*
X024735D01*
Y009585D01*
X025565D01*
Y010415D01*
D02*
G37*
G36*
X03315Y0104185D02*
X0330417Y0104043D01*
X0329407Y0103625D01*
X032854Y010296D01*
X0327875Y0102093D01*
X0327457Y0101083D01*
X0327315Y01D01*
X0327457Y0098917D01*
X0327875Y0097907D01*
X032854Y009704D01*
X0329407Y0096375D01*
X0330417Y0095957D01*
X03315Y0095815D01*
X0332583Y0095957D01*
X0333593Y0096375D01*
X0334459Y009704D01*
X0335125Y0097907D01*
X0335543Y0098917D01*
X0335685Y01D01*
X0335543Y0101083D01*
X0335125Y0102093D01*
X0334459Y010296D01*
X0333593Y0103625D01*
X0332583Y0104043D01*
X03315Y0104185D01*
D02*
G37*
G36*
X03015D02*
X0300417Y0104043D01*
X0299407Y0103625D01*
X029854Y010296D01*
X0297875Y0102093D01*
X0297457Y0101083D01*
X0297315Y01D01*
X0297457Y0098917D01*
X0297875Y0097907D01*
X029854Y009704D01*
X0299407Y0096375D01*
X0300417Y0095957D01*
X03015Y0095815D01*
X0302583Y0095957D01*
X0303593Y0096375D01*
X030446Y009704D01*
X0305125Y0097907D01*
X0305543Y0098917D01*
X0305685Y01D01*
X0305543Y0101083D01*
X0305125Y0102093D01*
X030446Y010296D01*
X0303593Y0103625D01*
X0302583Y0104043D01*
X03015Y0104185D01*
D02*
G37*
G36*
X02815D02*
X0280417Y0104043D01*
X0279407Y0103625D01*
X027854Y010296D01*
X0277875Y0102093D01*
X0277457Y0101083D01*
X0277315Y01D01*
X0277457Y0098917D01*
X0277875Y0097907D01*
X027854Y009704D01*
X0279407Y0096375D01*
X0280417Y0095957D01*
X02815Y0095815D01*
X0282583Y0095957D01*
X0283593Y0096375D01*
X0284459Y009704D01*
X0285125Y0097907D01*
X0285543Y0098917D01*
X0285685Y01D01*
X0285543Y0101083D01*
X0285125Y0102093D01*
X0284459Y010296D01*
X0283593Y0103625D01*
X0282583Y0104043D01*
X02815Y0104185D01*
D02*
G37*
G36*
X02715D02*
X0270417Y0104043D01*
X0269407Y0103625D01*
X0268541Y010296D01*
X0267875Y0102093D01*
X0267457Y0101083D01*
X0267315Y01D01*
X0267457Y0098917D01*
X0267875Y0097907D01*
X0268541Y009704D01*
X0269407Y0096375D01*
X0270417Y0095957D01*
X02715Y0095815D01*
X0272583Y0095957D01*
X0273593Y0096375D01*
X027446Y009704D01*
X0275125Y0097907D01*
X0275543Y0098917D01*
X0275685Y01D01*
X0275543Y0101083D01*
X0275125Y0102093D01*
X027446Y010296D01*
X0273593Y0103625D01*
X0272583Y0104043D01*
X02715Y0104185D01*
D02*
G37*
G36*
X02615D02*
X0260417Y0104043D01*
X0259407Y0103625D01*
X0258541Y010296D01*
X0257875Y0102093D01*
X0257457Y0101083D01*
X0257315Y01D01*
X0257457Y0098917D01*
X0257875Y0097907D01*
X0258541Y009704D01*
X0259407Y0096375D01*
X0260417Y0095957D01*
X02615Y0095815D01*
X0262583Y0095957D01*
X0263593Y0096375D01*
X0264459Y009704D01*
X0265125Y0097907D01*
X0265543Y0098917D01*
X0265685Y01D01*
X0265543Y0101083D01*
X0265125Y0102093D01*
X0264459Y010296D01*
X0263593Y0103625D01*
X0262583Y0104043D01*
X02615Y0104185D01*
D02*
G37*
G36*
X0269754Y01655D02*
X0266786D01*
X0263817D01*
Y0164778D01*
X0263788Y016463D01*
Y0163336D01*
X0263414Y0163086D01*
X0262928Y0162358D01*
X0262856Y0162D01*
X0267144D01*
X0267072Y0162358D01*
X0266891Y016263D01*
X0267029Y016313D01*
X0269754D01*
Y01655D01*
D02*
G37*
G36*
X0296721Y0164705D02*
X0293555D01*
X029039D01*
Y0159972D01*
X0291571D01*
Y0150116D01*
X0291514Y0150078D01*
X0291028Y0149351D01*
X0290956Y0148992D01*
X0295244D01*
X0295172Y0149351D01*
X0294686Y0150078D01*
X0294629Y0150116D01*
Y0159972D01*
X0296721D01*
Y0164705D01*
D02*
G37*
G36*
X03275Y0135644D02*
X0327142Y0135572D01*
X0326414Y0135086D01*
X0325928Y0134358D01*
X0325856Y0134D01*
X03275D01*
Y0135644D01*
D02*
G37*
G36*
X0328Y0126603D02*
X0326319D01*
Y0125119D01*
X0328D01*
Y0126603D01*
D02*
G37*
G36*
X0339Y0137268D02*
X0335154D01*
Y0135193D01*
X0339D01*
Y0137268D01*
D02*
G37*
G36*
Y0134193D02*
X0335154D01*
Y0132118D01*
X0339D01*
Y0134193D01*
D02*
G37*
%LPD*%
D14*
X0232Y01371D02*
X02415Y01466D01*
X0232Y0130169D02*
Y01371D01*
X0266Y0181D02*
X0266076Y0181077D01*
X02725Y0187D02*
X0273772Y0188272D01*
X02725Y01835D02*
Y0187D01*
X0270076Y0181077D02*
X02725Y01835D01*
X0253086Y0121971D02*
Y01295D01*
Y0121971D02*
X0255505Y0119552D01*
Y0115944D02*
Y0119552D01*
Y0115944D02*
X0257749Y01137D01*
Y0109537D02*
Y01137D01*
Y0109537D02*
X0257786Y01095D01*
X0304Y0133768D02*
X0309834D01*
X0315102Y01285D01*
X03152D01*
X0262Y0150482D02*
X0262605D01*
X026647Y0146617D01*
X0323845Y01175D02*
X0329D01*
X0323672Y0117674D02*
X0323845Y01175D01*
X0318625Y0117674D02*
X0323672D01*
X0315298Y0121D02*
X0318625Y0117674D01*
X03152Y0121D02*
X0315298D01*
X03152D02*
Y01285D01*
X0240828Y0183D02*
X0241923Y0181905D01*
Y0179577D02*
Y0181905D01*
Y0179577D02*
X0242Y01795D01*
X02305Y0183D02*
X0240828D01*
X0266076Y0181077D02*
X0270076D01*
X0273772Y0188272D02*
X0296725D01*
X0298168Y0184682D02*
Y0186828D01*
X0296725Y0188272D02*
X0298168Y0186828D01*
Y0184682D02*
X0298349Y0184501D01*
Y018391D02*
Y0184501D01*
X026647Y0145679D02*
Y0146617D01*
Y0145679D02*
X0266649Y0145501D01*
X0298349Y017909D02*
X0300759Y01815D01*
X0298349Y01775D02*
Y017909D01*
X0300759Y01815D02*
X031232D01*
X0298349Y018391D02*
X0300759Y01815D01*
X031232D02*
X0313Y0180821D01*
Y0178865D02*
Y0180821D01*
Y0178865D02*
X0314172Y0177693D01*
X03195D01*
X02415Y01466D02*
X02483D01*
D21*
X0304984Y0165398D02*
D03*
X0307543D02*
D03*
X0310102D02*
D03*
X0312661D02*
D03*
X031522D02*
D03*
X0317779D02*
D03*
X0320339D02*
D03*
X0322898D02*
D03*
X0325457D02*
D03*
X0328016D02*
D03*
Y0142602D02*
D03*
X0325457D02*
D03*
X0322898D02*
D03*
X0320339D02*
D03*
X0317779D02*
D03*
X031522D02*
D03*
X0312661D02*
D03*
X0310102D02*
D03*
X0307543D02*
D03*
X0304984D02*
D03*
D22*
X02912Y01845D02*
D03*
X0298349Y0184501D02*
D03*
X02912Y01775D02*
D03*
X0298349Y01775D02*
D03*
X02595Y01455D02*
D03*
X0266649Y0145501D02*
D03*
X0258Y0185D02*
D03*
X0265149Y0185001D02*
D03*
D23*
X028065Y0184501D02*
D03*
X027585D02*
D03*
X028065Y0177694D02*
D03*
X027585D02*
D03*
X02601Y0154D02*
D03*
X02649D02*
D03*
D24*
X0293555Y0165205D02*
D03*
X0275445D02*
D03*
D25*
X02845D02*
D03*
D26*
X02845Y0140795D02*
D03*
D27*
X0307689Y0177693D02*
D03*
Y0185173D02*
D03*
X03195D02*
D03*
Y0181433D02*
D03*
Y0177693D02*
D03*
D28*
X03285Y01855D02*
D03*
X0328501Y0178351D02*
D03*
X03225Y0121D02*
D03*
X0322499Y0128149D02*
D03*
X0248Y0184501D02*
D03*
X0248001Y0177352D02*
D03*
D29*
X03395Y0158693D02*
D03*
Y0145307D02*
D03*
Y0170007D02*
D03*
Y0183393D02*
D03*
Y0134693D02*
D03*
Y0121307D02*
D03*
D30*
X03285Y0122303D02*
D03*
Y0127103D02*
D03*
D31*
X03407Y0111803D02*
D03*
X03333D02*
D03*
X03078Y01285D02*
D03*
X03152D02*
D03*
X03078Y0121D02*
D03*
X03152D02*
D03*
X03207Y0111803D02*
D03*
X03133D02*
D03*
X02973Y0111D02*
D03*
X03047D02*
D03*
X02803D02*
D03*
X02877D02*
D03*
X02657Y01765D02*
D03*
X02583D02*
D03*
X0266786Y0166D02*
D03*
X0259386D02*
D03*
D32*
X0297248Y0129661D02*
D03*
X02815D02*
D03*
Y0121D02*
D03*
X0297248D02*
D03*
D33*
X0247513Y0113984D02*
D03*
Y0116543D02*
D03*
Y0119102D02*
D03*
Y0121661D02*
D03*
Y0124221D02*
D03*
Y0126779D02*
D03*
Y0129339D02*
D03*
Y0131898D02*
D03*
Y0134457D02*
D03*
Y0137016D02*
D03*
X0270487D02*
D03*
Y0134457D02*
D03*
Y0131898D02*
D03*
Y0129339D02*
D03*
Y0126779D02*
D03*
Y0124221D02*
D03*
Y0121661D02*
D03*
Y0119102D02*
D03*
Y0116543D02*
D03*
Y0113984D02*
D03*
D34*
X02483Y016082D02*
D03*
Y01466D02*
D03*
D35*
X0220316Y0109449D02*
D03*
Y0140551D02*
D03*
D36*
X0232Y012D02*
D03*
Y0122441D02*
D03*
Y0125D02*
D03*
Y0127559D02*
D03*
Y0130118D02*
D03*
D56*
X0307795Y0159166D02*
Y0165146D01*
Y0159166D02*
X0308Y0158961D01*
X0307543Y0165398D02*
X0307795Y0165146D01*
X02205Y0109D02*
Y0117D01*
Y0163D02*
X02305Y0173D01*
X02205Y0140602D02*
Y0163D01*
X023899Y0127559D02*
X0242328Y0124221D01*
X0232Y0127559D02*
X023899D01*
X0242328Y0124221D02*
X0247513D01*
X0237759Y0125D02*
X0241098Y0121661D01*
X0232Y0125D02*
X0237759D01*
X0241098Y0121661D02*
X0247513D01*
X0239931Y012D02*
X0240828Y0119102D01*
X0232Y012D02*
X0239931D01*
X0240828Y0119102D02*
X0247513D01*
X0220535Y0117D02*
X0223535Y012D01*
X0232D01*
X02205Y0117D02*
Y0140102D01*
Y0117D02*
X0220535D01*
X02445Y0172D02*
X02515D01*
X02405Y0168D02*
X02445Y0172D01*
X02405Y01575D02*
Y0168D01*
X02515Y0172D02*
X02525Y0173D01*
Y01795D01*
X0238Y0158D02*
Y0171D01*
X025825Y0116734D02*
Y0131018D01*
X03078Y0121D02*
Y0128D01*
X02615Y01235D02*
X02645D01*
X02615Y0128D02*
X02645D01*
X02615Y0132D02*
X0270385D01*
X02645Y01235D02*
X026768Y012668D01*
X0298Y0151D02*
X0300734Y0153734D01*
X0310359D01*
X02931Y0148492D02*
Y016475D01*
Y0135043D02*
Y0148492D01*
X0261649Y0182149D02*
Y0186575D01*
X026032Y0180821D02*
X0261649Y0182149D01*
X025382Y0180821D02*
X026032D01*
X0269Y01855D02*
Y01885D01*
X0273557Y0134357D02*
X0274457Y0133458D01*
Y0111457D02*
Y0133458D01*
X02693Y01063D02*
X0274457Y0111457D01*
X0270587Y0134357D02*
X0273557D01*
X0312732Y0137268D02*
X0313Y0137D01*
X0312132Y0137268D02*
X0312732D01*
X0310354Y0139046D02*
X0312132Y0137268D01*
X0310354Y0139046D02*
Y014235D01*
X0310102Y0142602D02*
X0310354Y014235D01*
X02395Y01063D02*
X02693D01*
X0248448Y0109D02*
X0253005Y0113557D01*
X0246768Y0109D02*
X0248448D01*
X0253005Y0113557D02*
Y0118517D01*
X0252419Y0119102D02*
X0253005Y0118517D01*
X0247513Y0119102D02*
X0252419D01*
X0245028Y01115D02*
X0247513Y0113984D01*
X02365Y01115D02*
X0245028D01*
X0258004Y0146091D02*
X02595D01*
X02565Y0147594D02*
X0258004Y0146091D01*
X02565Y0147594D02*
Y0152884D01*
X02595Y01455D02*
Y0146091D01*
X02565Y0152884D02*
X0257616Y0154D01*
X02601D01*
X02555Y0133768D02*
Y0133768D01*
Y0133768D02*
X025825Y0131018D01*
X0261Y0113984D02*
X0270487D01*
X025825Y0116734D02*
X0261Y0113984D01*
X02545Y0134768D02*
X02555Y0133768D01*
X02545Y0134768D02*
Y0165D01*
X0256Y01665D01*
X0258886D01*
X0259386Y0166D01*
X0265Y01615D02*
Y0161879D01*
X0265317Y0162196D01*
Y016463D01*
X0266687Y0166D01*
X0266786D01*
X0270487Y0147987D02*
X02715Y0149D01*
X0276D01*
X0308Y0158961D02*
X0311232D01*
X03115Y0158693D01*
X0310359Y0153734D02*
X0312825Y01562D01*
X0304992Y0158508D02*
X0305Y01585D01*
X0304992Y0158508D02*
Y016539D01*
X0304984Y0165398D02*
X0304992Y016539D01*
X0312825Y01562D02*
X03318D01*
X030985Y016565D02*
X0310102Y0165398D01*
X030985Y016565D02*
Y0168988D01*
X02995Y0158693D02*
Y0166004D01*
X0303835Y0170339D01*
X03085D01*
X030985Y0168988D01*
X0317527Y01542D02*
X03293D01*
X0312913Y0149587D02*
X0317527Y01542D01*
X03318Y01562D02*
X03395Y01485D01*
X03293Y01542D02*
X03315Y0152D01*
X0324282Y01515D02*
X03253Y0150482D01*
X03395Y0145307D02*
Y01485D01*
X0270487Y0137016D02*
Y0147987D01*
X02931Y016475D02*
X0293555Y0165205D01*
X0292414Y0134357D02*
X02931Y0135043D01*
X03Y0145775D02*
Y0146D01*
X02978Y0143575D02*
X03Y0145775D01*
X02978Y0130824D02*
Y0143575D01*
X03005Y0139D02*
X0301382D01*
X0281105Y0134357D02*
X0292414D01*
X0280748Y0134D02*
X0281105Y0134357D01*
X0280748Y0130413D02*
Y0134D01*
Y0130413D02*
X02815Y0129661D01*
X0301382Y0139D02*
X0304984Y0142602D01*
X0296086Y0130824D02*
X0297248Y0129661D01*
X0296086Y0130824D02*
X02978D01*
X0276457Y0112847D02*
Y0129755D01*
Y0112847D02*
X0278304Y0111D01*
X02803D01*
X0276457Y0129755D02*
X0277115Y0130413D01*
X0280748D01*
X0330196Y0127103D02*
X03317Y01256D01*
Y0116382D02*
Y01256D01*
X03315Y01325D02*
X03337Y01303D01*
Y01233D02*
Y01303D01*
Y01233D02*
X0335693Y0121307D01*
X03315Y01325D02*
Y0152D01*
X03337Y0112204D02*
Y01233D01*
X03285Y0127103D02*
X0330196D01*
X03275Y0112182D02*
X03317Y0116382D01*
X03275Y0112D02*
Y0112182D01*
X03333Y0111803D02*
X03337Y0112204D01*
X0319326Y0115174D02*
X03207Y01138D01*
X0310327Y0115174D02*
X0319326D01*
X03207Y0111803D02*
Y01138D01*
X0320897Y0112D02*
X03275D01*
X02973Y0108454D02*
Y0111D01*
Y0108454D02*
X0298753Y0107D01*
X0297248Y0111052D02*
X02973Y0111D01*
X0298753Y0107D02*
X03105D01*
X03115Y0106D01*
Y01D02*
Y0106D01*
X0308414Y0117086D02*
X0310327Y0115174D01*
X0308414Y0117086D02*
Y0120386D01*
X0318232Y0134768D02*
X03185Y01345D01*
X0318232Y0134768D02*
Y0138268D01*
X0317779Y0138721D02*
X0318232Y0138268D01*
X0317779Y0142602D02*
Y0144602D01*
Y0138721D02*
Y0142602D01*
X0328303Y0122303D02*
X03285D01*
X0327Y0121D02*
X0328303Y0122303D01*
X03225Y0121D02*
X0327D01*
X0328Y01335D02*
X032825Y013325D01*
Y0127354D02*
Y013325D01*
Y0127354D02*
X03285Y0127103D01*
X03215Y0148121D02*
Y01485D01*
X0320473Y0147095D02*
X03215Y0148121D01*
X0320473Y0142737D02*
Y0147095D01*
X0320339Y0142602D02*
X0320473Y0142737D01*
X0322699Y0132699D02*
Y0142403D01*
X03225Y012815D02*
Y01325D01*
X0322699Y0132699D01*
Y0142403D02*
X0322898Y0142602D01*
X0322499Y0128149D02*
X03225Y012815D01*
X0312913Y0142854D02*
Y0149587D01*
X031522Y0147307D02*
X03175Y0149587D01*
X0317779Y01595D02*
Y0165398D01*
X0322949Y0159551D02*
X0323Y01595D01*
X0336463Y01165D02*
X0339373D01*
X03407Y0115174D01*
Y0111803D02*
Y0115174D01*
X0335693Y0121307D02*
X03395D01*
X03445Y0113504D02*
Y01315D01*
X0344465D02*
X03445D01*
X0341272Y0134693D02*
X0344465Y01315D01*
X03395Y0134693D02*
X0341272D01*
X03428Y0111803D02*
X03445Y0113504D01*
X03407Y0111803D02*
X03428D01*
X03445Y01315D02*
Y0158414D01*
X0343914Y0159D02*
X03445Y0158414D01*
X0339807Y0159D02*
X0343914D01*
X03395Y0158693D02*
X0339807Y0159D01*
X03195Y0181433D02*
X0327915D01*
X0328501Y0180847D01*
Y0178351D02*
Y0180847D01*
X0338893Y0178351D02*
X03395Y0177745D01*
X0328501Y0178351D02*
X0338893D01*
X03395Y0170007D02*
Y0177745D01*
X03207Y0111803D02*
X0320897Y0112D01*
X03078Y0121D02*
X0308414Y0120386D01*
X0270487Y0134457D02*
X0270587Y0134357D01*
X02335Y015D02*
Y01535D01*
X0238Y0158D01*
Y0171D02*
X0244352Y0177352D01*
X0248001D01*
X02375Y0148D02*
Y01545D01*
X02405Y01575D01*
X026768Y012668D02*
X0270387D01*
X0270487Y0126779D01*
X0261649Y0186575D02*
X0267846Y0192772D01*
X0335643D01*
X02715Y0176D02*
Y017833D01*
X0335643Y0192772D02*
X03395Y0188914D01*
X0269Y01885D02*
X0271272Y0190772D01*
X0304142D01*
X03065Y0188414D01*
Y0185854D02*
Y0188414D01*
Y0185854D02*
X0307181Y0185173D01*
X0307689D01*
X027567Y018432D02*
X027585Y0184501D01*
X027567Y01825D02*
Y018432D01*
X02715Y017833D02*
X027567Y01825D01*
X02645Y0128D02*
X0265839Y0129339D01*
X0270487D01*
X027776Y01735D02*
X02795D01*
X027585Y0175409D02*
X027776Y01735D01*
X027585Y0175409D02*
Y0177694D01*
X0270385Y0132D02*
X0270487Y0131898D01*
X027567Y0184682D02*
X027585Y0184501D01*
X02525Y01795D02*
X025382Y0180821D01*
X0253005Y0129419D02*
X0253086Y01295D01*
X0247593Y0129419D02*
X0253005D01*
X0247513Y0129339D02*
X0247593Y0129419D01*
X03395Y0183393D02*
Y0188914D01*
X024775Y018425D02*
X0248Y0184501D01*
X0240949Y0136D02*
X0244951Y0131998D01*
X0247413D01*
X0247513Y0131898D01*
X03253Y0142759D02*
Y0150482D01*
Y0142759D02*
X0325457Y0142602D01*
X0328008Y014261D02*
Y0148492D01*
X03395Y0158693D02*
Y0170007D01*
X028065Y0177694D02*
X0291006D01*
X02912Y01775D01*
X028065Y0184501D02*
X0291199D01*
X02912Y01845D01*
X0328337Y0185337D02*
X03285Y01855D01*
X0319664Y0185337D02*
X0328337D01*
X03195Y0185173D02*
X0319664Y0185337D01*
X02585Y0166D02*
X0259386D01*
X0257501Y0184501D02*
X0258Y0185D01*
X0248Y0184501D02*
X0257501D01*
X0328008Y014261D02*
X0328016Y0142602D01*
X02887Y01065D02*
X02905D01*
X02877Y01075D02*
X02887Y01065D01*
X02877Y01075D02*
Y0111D01*
X031522Y0142602D02*
Y0147307D01*
X0297248Y0129661D02*
X0302914D01*
X0312661Y0142602D02*
X0312913Y0142854D01*
X0297248Y0111052D02*
Y0121D01*
X0302914Y0129661D02*
X03035Y0129076D01*
Y01185D02*
Y0129076D01*
Y01185D02*
X03047Y01173D01*
Y0111D02*
Y01173D01*
X02877Y0111D02*
Y0120414D01*
X0287114Y0121D02*
X02877Y0120414D01*
X02815Y0121D02*
X0287114D01*
X03215Y0172621D02*
Y0173D01*
X0320339Y017146D02*
X03215Y0172621D01*
X0320339Y0165398D02*
Y017146D01*
X0325457Y0171335D02*
X0327121Y0173D01*
X0325457Y0165398D02*
Y0171335D01*
X0327121Y0173D02*
X03275D01*
X031522Y0165398D02*
Y0172D01*
X03105Y01725D02*
X0312661Y0170339D01*
Y0165398D02*
Y0170339D01*
X0307543Y0142602D02*
Y01495D01*
X0328Y01595D02*
X0328008Y0159508D01*
Y016539D01*
X0328016Y0165398D01*
X0322949Y0159551D02*
Y0165347D01*
X0322898Y0165398D02*
X0322949Y0165347D01*
D57*
X02845Y0147492D02*
Y0167272D01*
X0303085Y0173089D02*
X03075Y0177504D01*
X0290317Y0173089D02*
X0303085D01*
X02845Y0167272D02*
X0290317Y0173089D01*
X0254836Y0171335D02*
X0273664D01*
X0247593Y0164093D02*
X0254836Y0171335D01*
X0247593Y0161527D02*
Y0164093D01*
Y0161527D02*
X02483Y016082D01*
X02583Y01765D02*
X02585D01*
X026167Y015805D02*
X026845D01*
X026Y0159721D02*
X026167Y015805D01*
X026845D02*
X0271945Y0154555D01*
X027453Y016612D02*
Y017047D01*
Y016612D02*
X0275445Y0165205D01*
Y0156D02*
Y0165205D01*
X0273664Y0171335D02*
X027453Y017047D01*
X0273995Y01525D02*
X0279492D01*
X02845Y0140795D02*
Y0147492D01*
X0279492Y01525D02*
X02845Y0147492D01*
X0271945Y015455D02*
Y0154555D01*
Y015455D02*
X0273995Y01525D01*
X0340036Y01075D02*
X03415Y0106035D01*
Y01D02*
Y0106035D01*
X0314464Y01075D02*
X0340036D01*
X0313Y0108965D02*
X0314464Y01075D01*
X0313Y0108965D02*
Y0111504D01*
X03133Y0111803D01*
X02845Y0140795D02*
X02845Y0140795D01*
D58*
X02305Y0163D02*
D03*
Y0173D02*
D03*
X02615Y01D02*
D03*
X02815D02*
D03*
X02915D02*
D03*
X03015D02*
D03*
X03115D02*
D03*
X03215D02*
D03*
X03315D02*
D03*
X03415D02*
D03*
X02715D02*
D03*
X03215Y01975D02*
D03*
X02515D02*
D03*
X02615D02*
D03*
X02715D02*
D03*
X02815D02*
D03*
X02915D02*
D03*
X03015D02*
D03*
X03115D02*
D03*
X03315D02*
D03*
D59*
X02305Y0183D02*
D03*
D60*
X02515Y01D02*
D03*
X03415Y01975D02*
D03*
D61*
X0308Y01285D02*
D03*
X02615Y01235D02*
D03*
Y0128D02*
D03*
Y0132D02*
D03*
X0298Y0151D02*
D03*
X02931Y0148492D02*
D03*
X0266Y0181D02*
D03*
X0265149Y0176828D02*
D03*
X0269Y01855D02*
D03*
X0265149Y0185001D02*
D03*
X02585Y01765D02*
D03*
X0257786Y01095D02*
D03*
X0304Y0133768D02*
D03*
X0313Y0137D02*
D03*
X02395Y01063D02*
D03*
X0246768Y0109D02*
D03*
X02365Y01115D02*
D03*
X0262Y0150482D02*
D03*
X0265074Y0154D02*
D03*
X0265Y01615D02*
D03*
X026Y0159721D02*
D03*
X0276Y0149D02*
D03*
X0305Y01585D02*
D03*
X03115Y0158693D02*
D03*
X02995D02*
D03*
X0324282Y01515D02*
D03*
X03Y0146D02*
D03*
X03005Y0139D02*
D03*
X0329Y01175D02*
D03*
X03275Y0112D02*
D03*
X03185Y01345D02*
D03*
X0328Y01335D02*
D03*
X03215Y01485D02*
D03*
X03225Y01325D02*
D03*
X0312913Y0149587D02*
D03*
X03175D02*
D03*
X0317779Y01595D02*
D03*
X0323D02*
D03*
X0336463Y01165D02*
D03*
X0248Y01845D02*
D03*
X0242Y01795D02*
D03*
X02335Y015D02*
D03*
X02375Y0148D02*
D03*
X0275445Y0156D02*
D03*
X02715Y0176D02*
D03*
X02795Y01735D02*
D03*
X0253086Y01295D02*
D03*
X0240949Y0136D02*
D03*
X0328008Y0148492D02*
D03*
X02905Y01065D02*
D03*
X03215Y0173D02*
D03*
X03275D02*
D03*
X031522Y0172D02*
D03*
X03105Y01725D02*
D03*
X0307543Y01495D02*
D03*
X0328Y01595D02*
D03*
M02*
