G04*
G04 #@! TF.GenerationSoftware,Altium Limited,Altium Designer,19.0.10 (269)*
G04*
G04 Layer_Color=32896*
%FSTAX25Y25*%
%MOIN*%
G70*
G01*
G75*
%ADD20C,0.00700*%
D20*
X025Y01075D02*
X0252499D01*
Y010875D01*
X0252083Y0109166D01*
X025125D01*
X0250833Y010875D01*
Y01075D01*
X0252499Y0109999D02*
X025D01*
Y0111249D01*
X0250416Y0111665D01*
X0252083D01*
X0252499Y0111249D01*
Y0109999D01*
X025Y0113748D02*
X0252499D01*
X025125Y0112498D01*
Y0114164D01*
X026Y01075D02*
X0262499D01*
Y010875D01*
X0262083Y0109166D01*
X026125D01*
X0260833Y010875D01*
Y01075D01*
X0262499Y0109999D02*
X026D01*
Y0111249D01*
X0260417Y0111665D01*
X0262083D01*
X0262499Y0111249D01*
Y0109999D01*
Y0114164D02*
Y0112498D01*
X026125D01*
X0261666Y0113331D01*
Y0113748D01*
X026125Y0114164D01*
X0260417D01*
X026Y0113748D01*
Y0112915D01*
X0260417Y0112498D01*
X02705Y01075D02*
X0272999D01*
Y010875D01*
X0272583Y0109166D01*
X027175D01*
X0271333Y010875D01*
Y01075D01*
X0272999Y0109999D02*
X02705D01*
Y0111249D01*
X0270917Y0111665D01*
X0272583D01*
X0272999Y0111249D01*
Y0109999D01*
Y0114164D02*
X0272583Y0113331D01*
X027175Y0112498D01*
X0270917D01*
X02705Y0112915D01*
Y0113748D01*
X0270917Y0114164D01*
X0271333D01*
X027175Y0113748D01*
Y0112498D01*
X028Y01075D02*
X0282499D01*
Y010875D01*
X0282083Y0109166D01*
X028125D01*
X0280833Y010875D01*
Y01075D01*
Y0108333D02*
X028Y0109166D01*
X0282083Y0111665D02*
X0282499Y0111249D01*
Y0110416D01*
X0282083Y0109999D01*
X0281666D01*
X028125Y0110416D01*
Y0111249D01*
X0280833Y0111665D01*
X0280416D01*
X028Y0111249D01*
Y0110416D01*
X0280416Y0109999D01*
X0282499Y0112498D02*
Y0114164D01*
Y0113331D01*
X028D01*
X029Y01075D02*
X0292499D01*
Y010875D01*
X0292083Y0109166D01*
X029125D01*
X0290833Y010875D01*
Y01075D01*
X0292499Y0109999D02*
X029D01*
Y0111249D01*
X0290417Y0111665D01*
X0292083D01*
X0292499Y0111249D01*
Y0109999D01*
X0292083Y0112498D02*
X0292499Y0112915D01*
Y0113748D01*
X0292083Y0114164D01*
X0290417D01*
X029Y0113748D01*
Y0112915D01*
X0290417Y0112498D01*
X0292083D01*
X03Y01075D02*
X0302499D01*
Y010875D01*
X0302083Y0109166D01*
X030125D01*
X0300833Y010875D01*
Y01075D01*
X0302083Y0111665D02*
X0302499Y0111249D01*
Y0110416D01*
X0302083Y0109999D01*
X0300416D01*
X03Y0110416D01*
Y0111249D01*
X0300416Y0111665D01*
X0302083Y0112498D02*
X0302499Y0112915D01*
Y0113748D01*
X0302083Y0114164D01*
X0300416D01*
X03Y0113748D01*
Y0112915D01*
X0300416Y0112498D01*
X0302083D01*
X0312083Y0109166D02*
X0312499Y010875D01*
Y0107916D01*
X0312083Y01075D01*
X0310417D01*
X031Y0107916D01*
Y010875D01*
X0310417Y0109166D01*
X031125D01*
Y0108333D01*
X031Y0109999D02*
X0312499D01*
X031Y0111665D01*
X0312499D01*
Y0112498D02*
X031D01*
Y0113748D01*
X0310417Y0114164D01*
X0312083D01*
X0312499Y0113748D01*
Y0112498D01*
X0322083Y0109166D02*
X0322499Y010875D01*
Y0107916D01*
X0322083Y01075D01*
X0320416D01*
X032Y0107916D01*
Y010875D01*
X0320416Y0109166D01*
X032125D01*
Y0108333D01*
X032Y0109999D02*
X0322499D01*
X032Y0111665D01*
X0322499D01*
Y0112498D02*
X032D01*
Y0113748D01*
X0320416Y0114164D01*
X0322083D01*
X0322499Y0113748D01*
Y0112498D01*
X0332083Y01075D02*
X0332499Y0107916D01*
Y010875D01*
X0332083Y0109166D01*
X0331666D01*
X033125Y010875D01*
Y0108333D01*
Y010875D01*
X0330833Y0109166D01*
X0330416D01*
X033Y010875D01*
Y0107916D01*
X0330416Y01075D01*
X0332499Y0109999D02*
X0330833D01*
X033Y0110832D01*
X0330833Y0111665D01*
X0332499D01*
X0332083Y0112498D02*
X0332499Y0112915D01*
Y0113748D01*
X0332083Y0114164D01*
X0331666D01*
X033125Y0113748D01*
Y0113331D01*
Y0113748D01*
X0330833Y0114164D01*
X0330416D01*
X033Y0113748D01*
Y0112915D01*
X0330416Y0112498D01*
X0342999Y01075D02*
X0341333D01*
X03405Y0108333D01*
X0341333Y0109166D01*
X0342999D01*
Y0109999D02*
Y0110832D01*
Y0110416D01*
X03405D01*
Y0109999D01*
Y0110832D01*
Y0112082D02*
X0342999D01*
X03405Y0113748D01*
X0342999D01*
X03405Y0183833D02*
X0342999D01*
Y0185083D01*
X0342583Y0185499D01*
X034175D01*
X0341333Y0185083D01*
Y0183833D01*
X0342583Y0187998D02*
X0342999Y0187582D01*
Y0186749D01*
X0342583Y0186332D01*
X0340916D01*
X03405Y0186749D01*
Y0187582D01*
X0340916Y0187998D01*
X03405Y0188831D02*
Y0189664D01*
Y0189248D01*
X0342999D01*
X0342583Y0188831D01*
X033Y0183D02*
X0332499D01*
Y018425D01*
X0332083Y0184666D01*
X033125D01*
X0330833Y018425D01*
Y0183D01*
X0332083Y0187165D02*
X0332499Y0186749D01*
Y0185916D01*
X0332083Y0185499D01*
X0330416D01*
X033Y0185916D01*
Y0186749D01*
X0330416Y0187165D01*
X033Y0189664D02*
Y0187998D01*
X0331666Y0189664D01*
X0332083D01*
X0332499Y0189248D01*
Y0188415D01*
X0332083Y0187998D01*
X032Y0183D02*
X0322499D01*
Y018425D01*
X0322083Y0184666D01*
X032125D01*
X0320833Y018425D01*
Y0183D01*
X0322083Y0187165D02*
X0322499Y0186749D01*
Y0185916D01*
X0322083Y0185499D01*
X0320416D01*
X032Y0185916D01*
Y0186749D01*
X0320416Y0187165D01*
X0322083Y0187998D02*
X0322499Y0188415D01*
Y0189248D01*
X0322083Y0189664D01*
X0321666D01*
X032125Y0189248D01*
Y0188831D01*
Y0189248D01*
X0320833Y0189664D01*
X0320416D01*
X032Y0189248D01*
Y0188415D01*
X0320416Y0187998D01*
X031Y0183D02*
X0312499D01*
Y018425D01*
X0312083Y0184666D01*
X031125D01*
X0310833Y018425D01*
Y0183D01*
X0312083Y0187165D02*
X0312499Y0186749D01*
Y0185916D01*
X0312083Y0185499D01*
X0310417D01*
X031Y0185916D01*
Y0186749D01*
X0310417Y0187165D01*
X031Y0189248D02*
X0312499D01*
X031125Y0187998D01*
Y0189664D01*
X03Y0183D02*
X0302499D01*
Y018425D01*
X0302083Y0184666D01*
X030125D01*
X0300833Y018425D01*
Y0183D01*
X0302083Y0187165D02*
X0302499Y0186749D01*
Y0185916D01*
X0302083Y0185499D01*
X0300416D01*
X03Y0185916D01*
Y0186749D01*
X0300416Y0187165D01*
X0302499Y0189664D02*
Y0187998D01*
X030125D01*
X0301666Y0188831D01*
Y0189248D01*
X030125Y0189664D01*
X0300416D01*
X03Y0189248D01*
Y0188415D01*
X0300416Y0187998D01*
X029Y0183D02*
X0292499D01*
Y018425D01*
X0292083Y0184666D01*
X029125D01*
X0290833Y018425D01*
Y0183D01*
X0292083Y0187165D02*
X0292499Y0186749D01*
Y0185916D01*
X0292083Y0185499D01*
X0290417D01*
X029Y0185916D01*
Y0186749D01*
X0290417Y0187165D01*
X0292499Y0189664D02*
X0292083Y0188831D01*
X029125Y0187998D01*
X0290417D01*
X029Y0188415D01*
Y0189248D01*
X0290417Y0189664D01*
X0290833D01*
X029125Y0189248D01*
Y0187998D01*
X028Y0183D02*
X0282499D01*
Y018425D01*
X0282083Y0184666D01*
X028125D01*
X0280833Y018425D01*
Y0183D01*
X0282083Y0187165D02*
X0282499Y0186749D01*
Y0185916D01*
X0282083Y0185499D01*
X0280416D01*
X028Y0185916D01*
Y0186749D01*
X0280416Y0187165D01*
X0282499Y0187998D02*
Y0189664D01*
X0282083D01*
X0280416Y0187998D01*
X028D01*
X02705Y0183D02*
X0272999D01*
Y018425D01*
X0272583Y0184666D01*
X027175D01*
X0271333Y018425D01*
Y0183D01*
X0272999Y0185499D02*
X02705D01*
Y0186749D01*
X0270917Y0187165D01*
X0272583D01*
X0272999Y0186749D01*
Y0185499D01*
X02705Y0189664D02*
Y0187998D01*
X0272166Y0189664D01*
X0272583D01*
X0272999Y0189248D01*
Y0188415D01*
X0272583Y0187998D01*
X026Y0183D02*
X0262499D01*
Y018425D01*
X0262083Y0184666D01*
X026125D01*
X0260833Y018425D01*
Y0183D01*
X0262499Y0185499D02*
X026D01*
Y0186749D01*
X0260417Y0187165D01*
X0262083D01*
X0262499Y0186749D01*
Y0185499D01*
X0262083Y0187998D02*
X0262499Y0188415D01*
Y0189248D01*
X0262083Y0189664D01*
X0261666D01*
X026125Y0189248D01*
Y0188831D01*
Y0189248D01*
X0260833Y0189664D01*
X0260417D01*
X026Y0189248D01*
Y0188415D01*
X0260417Y0187998D01*
X0252083Y0184666D02*
X0252499Y018425D01*
Y0183416D01*
X0252083Y0183D01*
X0250416D01*
X025Y0183416D01*
Y018425D01*
X0250416Y0184666D01*
X025125D01*
Y0183833D01*
X025Y0185499D02*
X0252499D01*
X025Y0187165D01*
X0252499D01*
Y0187998D02*
X025D01*
Y0189248D01*
X0250416Y0189664D01*
X0252083D01*
X0252499Y0189248D01*
Y0187998D01*
M02*
