M48
;Layer_Color=9474304
;FILE_FORMAT=2:4
INCH,LZ
;TYPE=PLATED
T1F00S00C0.0160
T2F00S00C0.0433
%
T01
X02395Y01063
X02365Y01115
X024677Y0109
X025779Y01095
X02615Y01235
Y0128
Y0132
X025309Y01295
X024095Y0136
X02375Y0148
X02335Y015
X0262Y015048
X026507Y0154
X027544Y0156
X0276Y0149
X02931Y014849
X0298Y0151
X03Y0146
X03005Y0139
X0304Y013377
X0308Y01285
X030754Y01495
X02905Y01065
X03275Y0112
X0329Y01175
X033646Y01165
X0328Y01335
X03225Y01325
X03185Y01345
X0313Y0137
X031291Y014959
X03175
X03215Y01485
X032428Y01515
X032801Y014849
X0328Y01595
X0323
X031778
X031522Y0172
X03215Y0173
X03275
X03105Y01725
X03115Y015869
X0305Y01585
X02995Y015869
X02795Y01735
X02715Y0176
X026515Y017683
X0266Y0181
X026515Y0185
X0269Y01855
X02585Y01765
X026Y015972
X0265Y01615
X0248Y01845
X0242Y01795
T02
X02515Y01
X02615
X02715
X02815
X02915
X03015
X03115
X03215
X03315
X03415
Y01975
X03315
X03215
X03115
X03015
X02915
X02815
X02715
X02615
X02515
X02305Y0183
Y0173
Y0163
M30
