G04*
G04 #@! TF.GenerationSoftware,Altium Limited,Altium Designer,19.0.10 (269)*
G04*
G04 Layer_Color=8421504*
%FSTAX25Y25*%
%MOIN*%
G70*
G01*
G75*
G04:AMPARAMS|DCode=21|XSize=59.84mil|YSize=16.14mil|CornerRadius=0.97mil|HoleSize=0mil|Usage=FLASHONLY|Rotation=90.000|XOffset=0mil|YOffset=0mil|HoleType=Round|Shape=RoundedRectangle|*
%AMROUNDEDRECTD21*
21,1,0.05984,0.01421,0,0,90.0*
21,1,0.05791,0.01614,0,0,90.0*
1,1,0.00194,0.00710,0.02895*
1,1,0.00194,0.00710,-0.02895*
1,1,0.00194,-0.00710,-0.02895*
1,1,0.00194,-0.00710,0.02895*
%
%ADD21ROUNDEDRECTD21*%
%ADD22R,0.02362X0.03543*%
%ADD23R,0.01968X0.02362*%
%ADD24R,0.04331X0.08465*%
%ADD25R,0.04331X0.08465*%
%ADD26R,0.13780X0.08465*%
%ADD27R,0.05906X0.02362*%
%ADD28R,0.03543X0.02362*%
%ADD29R,0.06693X0.03150*%
%ADD30R,0.02362X0.01968*%
%ADD31R,0.03937X0.03740*%
%ADD32R,0.07087X0.03937*%
%ADD33R,0.03900X0.01200*%
%ADD34R,0.08268X0.07874*%
%ADD35R,0.07480X0.07480*%
%ADD36R,0.07000X0.01000*%
D21*
X0304984Y0165398D02*
D03*
X0307543D02*
D03*
X0310102D02*
D03*
X0312661D02*
D03*
X031522D02*
D03*
X0317779D02*
D03*
X0320339D02*
D03*
X0322898D02*
D03*
X0325457D02*
D03*
X0328016D02*
D03*
Y0142602D02*
D03*
X0325457D02*
D03*
X0322898D02*
D03*
X0320339D02*
D03*
X0317779D02*
D03*
X031522D02*
D03*
X0312661D02*
D03*
X0310102D02*
D03*
X0307543D02*
D03*
X0304984D02*
D03*
D22*
X02912Y01845D02*
D03*
X0298349Y0184501D02*
D03*
X02912Y01775D02*
D03*
X0298349Y01775D02*
D03*
X02595Y01455D02*
D03*
X0266649Y0145501D02*
D03*
X0258Y0185D02*
D03*
X0265149Y0185001D02*
D03*
D23*
X028065Y0184501D02*
D03*
X027585D02*
D03*
X028065Y0177694D02*
D03*
X027585D02*
D03*
X02601Y0154D02*
D03*
X02649D02*
D03*
D24*
X0293555Y0165205D02*
D03*
X0275445D02*
D03*
D25*
X02845D02*
D03*
D26*
X02845Y0140795D02*
D03*
D27*
X0307689Y0177693D02*
D03*
Y0185173D02*
D03*
X03195D02*
D03*
Y0181433D02*
D03*
Y0177693D02*
D03*
D28*
X03285Y01855D02*
D03*
X0328501Y0178351D02*
D03*
X03225Y0121D02*
D03*
X0322499Y0128149D02*
D03*
X0248Y0184501D02*
D03*
X0248001Y0177352D02*
D03*
D29*
X03395Y0158693D02*
D03*
Y0145307D02*
D03*
Y0170007D02*
D03*
Y0183393D02*
D03*
Y0134693D02*
D03*
Y0121307D02*
D03*
D30*
X03285Y0122303D02*
D03*
Y0127103D02*
D03*
D31*
X03407Y0111803D02*
D03*
X03333D02*
D03*
X03078Y01285D02*
D03*
X03152D02*
D03*
X03078Y0121D02*
D03*
X03152D02*
D03*
X03207Y0111803D02*
D03*
X03133D02*
D03*
X02973Y0111D02*
D03*
X03047D02*
D03*
X02803D02*
D03*
X02877D02*
D03*
X02657Y01765D02*
D03*
X02583D02*
D03*
X0266786Y0166D02*
D03*
X0259386D02*
D03*
D32*
X0297248Y0129661D02*
D03*
X02815D02*
D03*
Y0121D02*
D03*
X0297248D02*
D03*
D33*
X0247513Y0113984D02*
D03*
Y0116543D02*
D03*
Y0119102D02*
D03*
Y0121661D02*
D03*
Y0124221D02*
D03*
Y0126779D02*
D03*
Y0129339D02*
D03*
Y0131898D02*
D03*
Y0134457D02*
D03*
Y0137016D02*
D03*
X0270487D02*
D03*
Y0134457D02*
D03*
Y0131898D02*
D03*
Y0129339D02*
D03*
Y0126779D02*
D03*
Y0124221D02*
D03*
Y0121661D02*
D03*
Y0119102D02*
D03*
Y0116543D02*
D03*
Y0113984D02*
D03*
D34*
X02483Y016082D02*
D03*
Y01466D02*
D03*
D35*
X0220316Y0109449D02*
D03*
Y0140551D02*
D03*
D36*
X0232Y012D02*
D03*
Y0122441D02*
D03*
Y0125D02*
D03*
Y0127559D02*
D03*
Y0130118D02*
D03*
M02*
