G04*
G04 #@! TF.GenerationSoftware,Altium Limited,Altium Designer,19.0.10 (269)*
G04*
G04 Layer_Color=2752767*
%FSTAX25Y25*%
%MOIN*%
G70*
G01*
G75*
%ADD19C,0.00200*%
%ADD62C,0.00267*%
D19*
X02297Y01622D02*
Y01638D01*
X02313D01*
Y01622D01*
X02297D01*
Y01722D02*
Y01738D01*
X02313D01*
Y01722D01*
X02297D01*
Y01822D02*
Y01838D01*
X02313D01*
Y01822D01*
X02297D01*
X02507Y00992D02*
Y01008D01*
X02523D01*
Y00992D01*
X02507D01*
X02607D02*
Y01008D01*
X02623D01*
Y00992D01*
X02607D01*
X02807D02*
Y01008D01*
X02823D01*
Y00992D01*
X02807D01*
X02907D02*
Y01008D01*
X02923D01*
Y00992D01*
X02907D01*
X03007D02*
Y01008D01*
X03023D01*
Y00992D01*
X03007D01*
X03107D02*
Y01008D01*
X03123D01*
Y00992D01*
X03107D01*
X03207D02*
Y01008D01*
X03223D01*
Y00992D01*
X03207D01*
X03307D02*
Y01008D01*
X03323D01*
Y00992D01*
X03307D01*
X03407D02*
Y01008D01*
X03423D01*
Y00992D01*
X03407D01*
X02707D02*
Y01008D01*
X02723D01*
Y00992D01*
X02707D01*
X03207Y01967D02*
Y01983D01*
X03223D01*
Y01967D01*
X03207D01*
X02507D02*
Y01983D01*
X02523D01*
Y01967D01*
X02507D01*
X02607D02*
Y01983D01*
X02623D01*
Y01967D01*
X02607D01*
X02707D02*
Y01983D01*
X02723D01*
Y01967D01*
X02707D01*
X02807D02*
Y01983D01*
X02823D01*
Y01967D01*
X02807D01*
X02907D02*
Y01983D01*
X02923D01*
Y01967D01*
X02907D01*
X03007D02*
Y01983D01*
X03023D01*
Y01967D01*
X03007D01*
X03107D02*
Y01983D01*
X03123D01*
Y01967D01*
X03107D01*
X03307D02*
Y01983D01*
X03323D01*
Y01967D01*
X03307D01*
X03407D02*
Y01983D01*
X03423D01*
Y01967D01*
X03407D01*
D62*
X03088Y01285D02*
G03*
X03088Y01285I-00008J0D01*
G01*
X02623Y01235D02*
G03*
X02623Y01235I-00008J0D01*
G01*
Y0128D02*
G03*
X02623Y0128I-00008J0D01*
G01*
Y0132D02*
G03*
X02623Y0132I-00008J0D01*
G01*
X02988Y0151D02*
G03*
X02988Y0151I-00008J0D01*
G01*
X02939Y0148492D02*
G03*
X02939Y0148492I-00008J0D01*
G01*
X02668Y0181D02*
G03*
X02668Y0181I-00008J0D01*
G01*
X0265949Y0176828D02*
G03*
X0265949Y0176828I-00008J0D01*
G01*
X02698Y01855D02*
G03*
X02698Y01855I-00008J0D01*
G01*
X0265949Y0185001D02*
G03*
X0265949Y0185001I-00008J0D01*
G01*
X02593Y01765D02*
G03*
X02593Y01765I-00008J0D01*
G01*
X0258586Y01095D02*
G03*
X0258586Y01095I-00008J0D01*
G01*
X03048Y0133768D02*
G03*
X03048Y0133768I-00008J0D01*
G01*
X03138Y0137D02*
G03*
X03138Y0137I-00008J0D01*
G01*
X02403Y01063D02*
G03*
X02403Y01063I-00008J0D01*
G01*
X0247568Y0109D02*
G03*
X0247568Y0109I-00008J0D01*
G01*
X02373Y01115D02*
G03*
X02373Y01115I-00008J0D01*
G01*
X02628Y0150482D02*
G03*
X02628Y0150482I-00008J0D01*
G01*
X0265874Y0154D02*
G03*
X0265874Y0154I-00008J0D01*
G01*
X02658Y01615D02*
G03*
X02658Y01615I-00008J0D01*
G01*
X02608Y0159721D02*
G03*
X02608Y0159721I-00008J0D01*
G01*
X02768Y0149D02*
G03*
X02768Y0149I-00008J0D01*
G01*
X03058Y01585D02*
G03*
X03058Y01585I-00008J0D01*
G01*
X03123Y0158693D02*
G03*
X03123Y0158693I-00008J0D01*
G01*
X03003D02*
G03*
X03003Y0158693I-00008J0D01*
G01*
X0325082Y01515D02*
G03*
X0325082Y01515I-00008J0D01*
G01*
X03008Y0146D02*
G03*
X03008Y0146I-00008J0D01*
G01*
X03013Y0139D02*
G03*
X03013Y0139I-00008J0D01*
G01*
X03298Y01175D02*
G03*
X03298Y01175I-00008J0D01*
G01*
X03283Y0112D02*
G03*
X03283Y0112I-00008J0D01*
G01*
X03193Y01345D02*
G03*
X03193Y01345I-00008J0D01*
G01*
X03288Y01335D02*
G03*
X03288Y01335I-00008J0D01*
G01*
X03223Y01485D02*
G03*
X03223Y01485I-00008J0D01*
G01*
X03233Y01325D02*
G03*
X03233Y01325I-00008J0D01*
G01*
X0313713Y0149587D02*
G03*
X0313713Y0149587I-00008J0D01*
G01*
X03183D02*
G03*
X03183Y0149587I-00008J0D01*
G01*
X031858Y01595D02*
G03*
X031858Y01595I-00008J0D01*
G01*
X03238D02*
G03*
X03238Y01595I-00008J0D01*
G01*
X0337263Y01165D02*
G03*
X0337263Y01165I-00008J0D01*
G01*
X02488Y01845D02*
G03*
X02488Y01845I-00008J0D01*
G01*
X02428Y01795D02*
G03*
X02428Y01795I-00008J0D01*
G01*
X02343Y015D02*
G03*
X02343Y015I-00008J0D01*
G01*
X02383Y0148D02*
G03*
X02383Y0148I-00008J0D01*
G01*
X0276245Y0156D02*
G03*
X0276245Y0156I-00008J0D01*
G01*
X02723Y0176D02*
G03*
X02723Y0176I-00008J0D01*
G01*
X02803Y01735D02*
G03*
X02803Y01735I-00008J0D01*
G01*
X0253886Y01295D02*
G03*
X0253886Y01295I-00008J0D01*
G01*
X0241749Y0136D02*
G03*
X0241749Y0136I-00008J0D01*
G01*
X0328808Y0148492D02*
G03*
X0328808Y0148492I-00008J0D01*
G01*
X02913Y01065D02*
G03*
X02913Y01065I-00008J0D01*
G01*
X03223Y0173D02*
G03*
X03223Y0173I-00008J0D01*
G01*
X03283D02*
G03*
X03283Y0173I-00008J0D01*
G01*
X031602Y0172D02*
G03*
X031602Y0172I-00008J0D01*
G01*
X03113Y01725D02*
G03*
X03113Y01725I-00008J0D01*
G01*
X0308343Y01495D02*
G03*
X0308343Y01495I-00008J0D01*
G01*
X03288Y01595D02*
G03*
X03288Y01595I-00008J0D01*
G01*
M02*
